<?xml version="1.0" encoding="iso-8859-1"?>
<!-- Generator: Adobe Illustrator 19.0.0, SVG Export Plug-In . SVG Version: 6.00 Build 0)  -->
<svg version="1.1" id="Layer_1" xmlns="http://www.w3.org/2000/svg" xmlns:xlink="http://www.w3.org/1999/xlink" x="0px" y="0px"
	 viewBox="0 0 511.999 511.999" style="enable-background:new 0 0 511.999 511.999;" xml:space="preserve">
<g>
	<g>
		<path d="M315.511,170.277c-65.55,0-118.881,53.33-118.881,118.881s53.329,118.88,118.881,118.88
			c13.178,0,26.136-2.148,38.514-6.384c4.664-1.596,7.151-6.671,5.555-11.336c-1.596-4.664-6.671-7.154-11.336-5.555
			c-10.513,3.597-21.525,5.423-32.732,5.423c-55.706,0-101.027-45.32-101.027-101.027c0-55.707,45.321-101.027,101.027-101.027
			c55.707,0,101.027,45.32,101.027,101.027c0,32.243-14.855,61.798-40.756,81.084c-3.954,2.946-4.773,8.537-1.828,12.491
			c2.945,3.953,8.536,4.768,12.49,1.827c30.022-22.356,47.946-58.021,47.946-95.403
			C434.392,223.607,381.061,170.277,315.511,170.277z"/>
	</g>
</g>
<g>
	<g>
		<path d="M315.51,205.418c-16.944,0-33.275,5.045-47.226,14.591c-4.069,2.784-5.111,8.339-2.327,12.408
			c2.784,4.068,8.339,5.112,12.408,2.326c10.969-7.504,23.814-11.471,37.144-11.471c36.329,0,65.885,29.556,65.885,65.885
			c0,36.329-29.557,65.885-65.885,65.885s-65.885-29.556-65.885-65.885c0-10.901,2.72-21.704,7.865-31.24
			c2.342-4.338,0.724-9.753-3.616-12.095c-4.336-2.341-9.754-0.722-12.095,3.617c-6.546,12.131-10.007,25.865-10.007,39.718
			c0,46.173,37.565,83.738,83.738,83.738c46.173,0,83.738-37.566,83.738-83.738S361.682,205.418,315.51,205.418z"/>
	</g>
</g>
<g>
	<g>
		<path d="M96.879,157.798c-22.838,0-41.419,18.579-41.419,41.419s18.581,41.419,41.419,41.419
			c22.838,0,41.419-18.579,41.419-41.419S119.717,157.798,96.879,157.798z M96.879,222.782c-12.994,0-23.565-10.572-23.565-23.565
			s10.572-23.565,23.565-23.565s23.565,10.572,23.565,23.565S109.873,222.782,96.879,222.782z"/>
	</g>
</g>
<g>
	<g>
		<path d="M118.202,351.769H75.556c-14.44,0-26.188,11.747-26.188,26.188c0,14.441,11.749,26.188,26.188,26.188h42.646
			c14.44,0,26.187-11.747,26.187-26.188C144.389,363.516,132.642,351.769,118.202,351.769z M118.202,386.292H75.556
			c-4.595,0-8.335-3.74-8.335-8.335c0-4.595,3.74-8.335,8.335-8.335h42.646c4.595,0,8.334,3.74,8.334,8.335
			C126.536,382.553,122.798,386.292,118.202,386.292z"/>
	</g>
</g>
<g>
	<g>
		<path d="M465.294,121.557h-2.516c-4.097,0-6.697-5.181-11.653-17.001c-8.233-19.636-20.677-49.311-66.194-49.311h-66.382
			c-45.519,0-57.961,29.676-66.195,49.312c-4.956,11.82-7.557,17-11.653,17h-42.495v-16.693c0-16.162-13.15-29.312-29.312-29.312
			h-51.629c-16.162,0-29.312,13.15-29.312,29.312v16.692H46.705C20.953,121.557,0,142.509,0,168.263v69.771
			c0,4.931,3.997,8.927,8.927,8.927c4.93,0,8.927-3.996,8.927-8.927v-69.771c0-15.909,12.944-28.852,28.852-28.852h326.536
			c4.93,0,8.927-3.996,8.927-8.927s-3.997-8.927-8.927-8.927h-108.93c1.654-3.297,3.104-6.753,4.506-10.097
			c7.908-18.86,16.085-38.361,49.73-38.361h66.382c33.645,0,41.822,19.502,49.73,38.361c1.402,3.345,2.852,6.801,4.507,10.097
			h-30.219c-4.93,0-8.927,3.996-8.927,8.927s3.997,8.927,8.927,8.927h56.346c15.91,0,28.852,12.944,28.852,28.852v241.786
			c0,15.909-12.944,28.852-28.852,28.852H46.705c-15.909,0-28.852-12.944-28.852-28.852V273.74c0-4.931-3.997-8.927-8.927-8.927
			c-4.93,0-8.927,3.996-8.927,8.927v136.308c0,25.754,20.953,46.705,46.706,46.705h418.588c25.754,0,46.705-20.953,46.705-46.705
			V168.263C512,142.509,491.047,121.557,465.294,121.557z M180.352,121.556h-74.546v-16.692c0-6.319,5.141-11.458,11.458-11.458
			h51.629c6.318,0,11.458,5.139,11.458,11.458V121.556z"/>
	</g>
</g>
<g>
</g>
<g>
</g>
<g>
</g>
<g>
</g>
<g>
</g>
<g>
</g>
<g>
</g>
<g>
</g>
<g>
</g>
<g>
</g>
<g>
</g>
<g>
</g>
<g>
</g>
<g>
</g>
<g>
</g>
</svg>
