<?xml version="1.0" encoding="iso-8859-1"?>
<!-- Generator: Adobe Illustrator 18.0.0, SVG Export Plug-In . SVG Version: 6.00 Build 0)  -->
<!DOCTYPE svg PUBLIC "-//W3C//DTD SVG 1.1//EN" "http://www.w3.org/Graphics/SVG/1.1/DTD/svg11.dtd">
<svg version="1.1" id="Capa_1" xmlns="http://www.w3.org/2000/svg" xmlns:xlink="http://www.w3.org/1999/xlink" x="0px" y="0px"
	 viewBox="0 0 489.436 489.436" style="enable-background:new 0 0 489.436 489.436;" xml:space="preserve">
<g>
	<path d="M319.823,465.837c0,12.58,10.204,22.783,22.783,22.783c12.588,0,22.784-10.196,22.784-22.783v-89.653l-45.567,37.322
		V465.837z"/>
	<path d="M383.392,361.439v104.398c0,12.58,10.204,22.783,22.783,22.783c12.58,0,22.784-10.204,22.784-22.783V328.695
		c7.507-2.736,13.253-9.069,15.108-16.953l-22.455,18.392L383.392,361.439z"/>
	<path d="M479.384,282.21l-34.63-106.49v-12.364c0-12.101-6.702-23.038-17.492-28.528c-5.369-2.747-11.432-4.212-17.5-4.212
		c-4.149,0-8.253,0.67-12.194,1.982c-3.469,1.162-6.631,2.964-9.607,5.029h-27.137c-2.973-2.063-6.132-3.863-9.594-5.022
		c-3.957-1.318-8.061-1.989-12.216-1.989c-6.054,0-12.108,1.459-17.502,4.212c-10.79,5.507-17.483,16.436-17.483,28.528v12.392
		l-34.63,106.462c-4.049,12.44,2.753,25.814,15.202,29.856c2.43,0.795,4.905,1.172,7.335,1.172c4.468,0,8.708-1.439,12.418-3.746
		c1.211,8.901,7.264,16.211,15.471,19.202v23.546l26.892-22.027L366,314.418h-38.041c-4.487,0-8.136-3.649-8.136-8.137v-5.391
		h46.653l0.013,13.128l54.597-44.719h-38.845l-0.013-13.443h46.73v6.996l3.663-3.001c3.605-2.948,7.825-4.602,12.132-5.126
		c7.785-0.947,15.87,1.928,21.218,8.442c8.292,10.127,6.803,25.059-3.316,33.35l-16.952,13.884
		c5.484,2.93,12.089,3.742,18.479,1.665C476.631,308.024,483.433,294.65,479.384,282.21z M319.823,165.678v-2.322
		c0-6.1,3.424-11.684,8.861-14.461c3.232-1.643,6.774-2.483,10.329-2.483c2.43,0,4.858,0.393,7.203,1.172
		c5.784,1.935,10.551,6.108,13.235,11.585l6.902,14.745l0.049,50.351h-46.579V165.678z M319.823,269.299v-13.443h46.609
		l0.014,13.443H319.823z M382.198,224.264l-0.049-50.421l7.182-14.674c2.684-5.476,7.45-9.65,13.235-11.585
		c2.345-0.779,4.773-1.172,7.197-1.172c3.562,0,7.104,0.84,10.335,2.491c5.437,2.769,8.861,8.353,8.861,14.453v2.322v58.586H382.198
		z"/>
	<path d="M324.934,74.829c0.728,26.759,22.528,48.243,49.457,48.243c26.936,0,48.742-21.495,49.459-48.263
		c-0.067,0.001-0.129,0.02-0.197,0.02H324.934z"/>
	<path d="M324.836,59.033h98.816c5.429,0,9.825-4.395,9.825-9.818c0-5.429-4.397-9.825-9.825-9.825h-0.888
		C418.059,16.899,398.138,0,374.245,0c-23.879,0-43.809,16.899-48.522,39.39h-0.886c-5.431,0-9.826,4.396-9.826,9.825
		C315.01,54.638,319.406,59.033,324.836,59.033z"/>
	<path d="M293.999,434.483l-7.511-9.171l168.655-137.965c5.067-4.142,5.808-11.608,1.658-16.668
		c-4.142-5.067-11.6-5.815-16.667-1.658L271.481,406.986l-7.511-9.171l-4.414-5.39c-2.059-2.507-5.097-4.01-8.336-4.111
		c-3.248-0.107-6.379,1.196-8.591,3.564l-39.489,42.305c-3.842,4.119-4.05,10.449-0.479,14.808l29.085,35.509
		c3.571,4.357,9.811,5.406,14.608,2.444l49.253-30.38c2.77-1.697,4.658-4.512,5.19-7.713c0.541-3.2-0.332-6.478-2.391-8.984
		L293.999,434.483z"/>
	<path d="M134.323,351.385c-6.431-14.432-20.795-23.753-36.595-23.753c-15.799,0-30.164,9.321-36.595,23.753L10.381,465.26
		c-2.38,5.325-1.904,11.434,1.274,16.35c3.186,4.902,8.577,7.826,14.418,7.826h143.308c5.841,0,11.232-2.924,14.425-7.833
		c3.172-4.909,3.648-11.018,1.267-16.343L134.323,351.385z M172.279,474.125c-0.637,0.986-1.724,1.576-2.897,1.576H26.074
		c-1.174,0-2.26-0.59-2.891-1.569c-0.644-0.985-0.737-2.206-0.261-3.279l50.751-113.875c4.232-9.482,13.667-15.612,24.054-15.612
		c10.388,0,19.823,6.129,24.055,15.612l50.751,113.875C173.01,471.926,172.916,473.147,172.279,474.125z"/>
	<circle cx="103.85" cy="364.147" r="10.415"/>
	<path d="M127.342,392.159c0-4.977-4.038-9.014-9.014-9.014c-4.976,0-9.012,4.036-9.012,9.014c0,4.975,4.036,9.012,9.012,9.012
		C123.305,401.171,127.342,397.134,127.342,392.159z"/>
	<circle cx="131.634" cy="419.626" r="9.013"/>
	<circle cx="86.569" cy="388.309" r="9.013"/>
	<circle cx="100.303" cy="415.776" r="9.013"/>
</g>
<g>
</g>
<g>
</g>
<g>
</g>
<g>
</g>
<g>
</g>
<g>
</g>
<g>
</g>
<g>
</g>
<g>
</g>
<g>
</g>
<g>
</g>
<g>
</g>
<g>
</g>
<g>
</g>
<g>
</g>
</svg>
