<svg id="Layer_1" data-name="Layer 1" xmlns="http://www.w3.org/2000/svg" viewBox="0 0 122.88 119.17"><defs><style>.cls-1{fill-rule:evenodd;}</style></defs><title>euro-price-list</title><path class="cls-1" d="M42.47,63a3.42,3.42,0,0,1,0-6.73h37.4a3.42,3.42,0,0,1,0,6.73ZM112.8,90.26l-1.41,5.89h-9.8c1.26,4,4,6,8.25,6a21.51,21.51,0,0,0,13-4.49v12a21.06,21.06,0,0,1-12.16,3.43q-11.5,0-17-5.25A21.83,21.83,0,0,1,87,96.15H81.12l1.53-5.89h3.57a13.14,13.14,0,0,1-.07-1.7,16.36,16.36,0,0,1,.07-1.86H81.91l1.53-5.88H87q4.2-16.6,23.06-16.59a26.82,26.82,0,0,1,12.48,3.3l-2.9,11.69q-4.4-4-9.18-4c-4.17,0-7,1.87-8.46,5.62H113.6l-1.41,5.88H100.82a17.57,17.57,0,0,0-.07,1.86v1.7h12v0ZM75.21,112.41a3.38,3.38,0,0,1,0,6.76H7.86A7.87,7.87,0,0,1,0,111.31V7.86A7.85,7.85,0,0,1,7.86,0h96.49a7.87,7.87,0,0,1,7.86,7.86V46.92a3.38,3.38,0,1,1-6.75,0V7.86a1.15,1.15,0,0,0-1.11-1.11H7.86a1.15,1.15,0,0,0-.78.32,1.17,1.17,0,0,0-.33.79V111.3a1.07,1.07,0,0,0,.33.77,1.11,1.11,0,0,0,.78.33ZM42.47,87.71a3.48,3.48,0,0,1,0-6.84H71.88a3.48,3.48,0,0,1,0,6.84Zm0-49.47a3.13,3.13,0,0,1-2.83-3.37,3.12,3.12,0,0,1,2.83-3.36h37.4a3.13,3.13,0,0,1,2.83,3.36,3.13,3.13,0,0,1-2.83,3.37ZM26.24,79.68a4,4,0,1,1-4,4,4,4,0,0,1,4-4Zm0-24.38a4,4,0,1,1-4,4,4,4,0,0,1,4-4Zm0-24.39a4,4,0,1,1-4,4,4,4,0,0,1,4-4Z"/></svg>