<?xml version="1.0" encoding="utf-8"?><svg version="1.1" id="Layer_1" xmlns="http://www.w3.org/2000/svg" xmlns:xlink="http://www.w3.org/1999/xlink" x="0px" y="0px" viewBox="0 0 122.88 120.47" style="enable-background:new 0 0 122.88 120.47" xml:space="preserve"><style type="text/css">.st0{fill-rule:evenodd;clip-rule:evenodd;}</style><g><path class="st0" d="M54.5,69.81c2.48,5.17,10,5.36,12.38,0.03c-0.65-0.66-1.13-1.36-1.61-2.06c-0.08-0.11-0.16-0.23-0.24-0.34 c-1.15,0.91-2.54,1.49-4.35,1.49c-1.96-0.01-3.43-0.75-4.64-1.86c-0.07-0.07-0.14-0.13-0.21-0.2c-0.17,0.48-0.39,1.06-0.63,1.59 C54.98,68.97,54.74,69.46,54.5,69.81L54.5,69.81L54.5,69.81z M115.51,37.52v42.09h5.02c0.82,0,1.5,0.67,1.5,1.49v37.87 c0,0.82-0.67,1.49-1.5,1.49H1.49c-0.82,0-1.49-0.67-1.49-1.49V81.1c0-0.82,0.67-1.49,1.49-1.49h5.02V36.26 c-0.5-0.38-0.97-0.79-1.42-1.23c-2.43-2.43-3.93-5.78-3.93-9.46v-5.2l0-0.07v-0.01c0-0.26,0.06-0.52,0.19-0.75L11.88,0.78 C12.16,0.28,12.68,0,13.21,0l96.78,0c0.61,0,1.13,0.35,1.38,0.86l11.29,18.63c0.14,0.22,0.21,0.47,0.22,0.71l0,0 c0.01,0.05,0.01,0.1,0.01,0.16v5.2c0,3.68-1.51,7.03-3.93,9.46C117.94,36.03,116.79,36.87,115.51,37.52L115.51,37.52z M103.83,79.61V37.7c-1.42-0.67-2.71-1.58-3.8-2.67c-0.96-0.96-1.77-2.06-2.41-3.27c-0.63,1.21-1.45,2.31-2.41,3.27 c-2.43,2.43-5.78,3.93-9.46,3.93c-3.68,0-7.03-1.51-9.46-3.93c-0.96-0.96-1.77-2.06-2.41-3.27c-0.63,1.21-1.45,2.31-2.41,3.27 c-2.43,2.43-5.78,3.93-9.46,3.93c-3.68,0-7.03-1.51-9.46-3.93c-0.96-0.96-1.77-2.06-2.41-3.27c-0.63,1.21-1.45,2.31-2.41,3.27 c-2.43,2.43-5.78,3.93-9.46,3.93c-3.68,0-7.03-1.51-9.46-3.93c-0.96-0.96-1.77-2.06-2.41-3.27c-0.63,1.21-1.45,2.31-2.41,3.27 c-1.6,1.6-3.59,2.8-5.82,3.43v41.16h19.98c0.19-1.83,1.23-3.94,1.89-4.82c0.6-0.79,1.34-1.37,2.16-1.83 c2.47-1.37,8.88-1.83,11.54-3.69c0.2-0.29,0.41-0.72,0.61-1.18c0.31-0.7,0.58-1.46,0.76-1.98c-0.75-0.88-1.38-1.87-1.99-2.84 l-2.02-3.21c-0.74-1.1-1.12-2.11-1.14-2.93c-0.01-0.39,0.05-0.74,0.2-1.05c0.15-0.32,0.38-0.6,0.69-0.81 c0.15-0.1,0.31-0.18,0.49-0.25c-0.13-1.74-0.18-3.93-0.1-5.77c0.04-0.44,0.13-0.87,0.25-1.31c0.52-1.84,1.81-3.32,3.41-4.34 c0.88-0.56,1.85-0.99,2.86-1.27c0.64-0.18-0.09-1.62,0.57-1.69c3.2-0.33,7.93,1.99,10.17,4.41c1.12,1.21,1.82,2.82,1.97,4.94 l-0.13,5.24l0,0c0.56,0.17,0.92,0.52,1.06,1.1c0.16,0.64-0.01,1.53-0.55,2.76l0,0c-0.01,0.02-0.02,0.04-0.03,0.07l-2.3,3.79 c-0.84,1.39-1.7,2.79-2.82,3.89c0.1,0.14,0.2,0.29,0.3,0.44c0.46,0.67,0.91,1.34,1.5,1.93c0.02,0.02,0.04,0.04,0.05,0.06l0,0 c2.65,1.87,9.09,2.32,11.56,3.7c0.82,0.46,1.56,1.04,2.16,1.83c0.67,0.88,1.7,2.99,1.89,4.82H103.83L103.83,79.61z M5.24,18.84 h19.97l3.67-15.79H14.1L5.24,18.84L5.24,18.84z M73.73,3.05l1.53,15.79h20.38L91.47,3.05H73.73L73.73,3.05z M72.2,18.84L70.68,3.05 H53.32l-1.5,15.79H72.2L72.2,18.84z M48.77,18.84l1.5-15.79H32.01l-3.67,15.79H48.77L48.77,18.84z M94.62,3.05l4.17,15.79h19.91 l-9.57-15.79H94.62L94.62,3.05z M99.15,21.89v3.67c0,2.84,1.16,5.43,3.04,7.3c1.87,1.87,4.46,3.04,7.3,3.04 c2.84,0,5.43-1.16,7.3-3.04c1.87-1.87,3.04-4.46,3.04-7.3v-3.67H99.15L99.15,21.89z M75.41,21.89v3.67c0,2.84,1.16,5.43,3.04,7.3 c1.87,1.87,4.46,3.04,7.3,3.04c2.84,0,5.43-1.16,7.3-3.04c1.87-1.87,3.04-4.46,3.04-7.3v-3.67H75.41L75.41,21.89z M51.68,21.89 v3.67c0,2.84,1.16,5.43,3.04,7.3c1.87,1.87,4.46,3.04,7.3,3.04c2.84,0,5.43-1.16,7.3-3.04c1.87-1.87,3.04-4.46,3.04-7.3v-3.67 H51.68L51.68,21.89z M27.95,21.89v3.67c0,2.84,1.16,5.43,3.04,7.3c1.87,1.87,4.46,3.04,7.3,3.04c2.84,0,5.43-1.16,7.3-3.04 c1.87-1.87,3.04-4.46,3.04-7.3v-3.67H27.95L27.95,21.89z M24.89,21.89H4.21v3.67c0,2.84,1.16,5.43,3.04,7.3 c1.87,1.87,4.46,3.04,7.3,3.04c2.84,0,5.43-1.16,7.3-3.04c1.87-1.87,3.04-4.46,3.04-7.3V21.89L24.89,21.89z M48.29,79.61h25.18 l0.68-7.58c-2.08-0.41-4.28-0.72-6.59-2.05c-1.42,6.25-11.07,7.14-13.85,0.17c-2.07,1.04-4.08,1.64-6.48,2.01L48.29,79.61 L48.29,79.61z M7.07,85.87h107.87c0.48,0,0.88,0.4,0.88,0.88v26.59c0,0.48-0.4,0.88-0.88,0.88H7.07c-0.48,0-0.88-0.39-0.88-0.88 V86.75C6.2,86.26,6.59,85.87,7.07,85.87L7.07,85.87z M52.52,55.96c-0.45,0.02-0.79,0.11-1.02,0.27c-0.13,0.09-0.23,0.2-0.29,0.34 c-0.07,0.15-0.1,0.33-0.1,0.54c0.02,0.61,0.34,1.42,0.96,2.34l0.01,0.01l2.02,3.21c0.81,1.29,1.66,2.6,2.71,3.56 c1.01,0.93,2.24,1.55,3.87,1.56c1.76,0,3.05-0.65,4.09-1.63c1.09-1.02,1.94-2.41,2.79-3.8l2.27-3.74c0.42-0.97,0.58-1.61,0.48-1.99 c-0.06-0.23-0.31-0.34-0.73-0.36c-0.09,0-0.18-0.01-0.28,0c-0.1,0-0.21,0.01-0.32,0.02c-0.06,0.01-0.12,0-0.18-0.01 c-0.2,0.01-0.41,0-0.62-0.03l0.78-3.44c-5.77,0.91-10.09-3.38-16.2-0.86l0.44,4.06C52.97,56,52.74,55.99,52.52,55.96L52.52,55.96 L52.52,55.96L52.52,55.96z"/></g></svg>