<svg id="Layer_1" data-name="Layer 1" xmlns="http://www.w3.org/2000/svg" viewBox="0 0 122.88 105.19"><defs><style>.cls-1{fill-rule:evenodd;}</style></defs><title>rent-a-car</title><path class="cls-1" d="M10.17,55.2c-11-5.58-9.72-11.8,1.31-11.15L14,48.68,19,32.85c1.66-5.18,4.25-10,8.83-11.42V5.57A5.58,5.58,0,0,1,33.44,0h56A5.58,5.58,0,0,1,95,5.57V21h1c6.53,0,10.29,5.54,11.87,11.87l3.82,15.35,2.2-4.14c11.34-.66,12.35,5.93.35,11.62l2,3c7.89,8.11,7.15,16.21,5.92,36.24v6.58a3.72,3.72,0,0,1-3.71,3.71H102.57a3.72,3.72,0,0,1-3.71-3.71v-3H24v3a3.72,3.72,0,0,1-3.71,3.71H4.5a3.72,3.72,0,0,1-3.71-3.71V92.93a5.46,5.46,0,0,1,0-.58C-.37,77-2.06,63.12,10.17,55.2Zm79.47-28H33.06c-5,0-7.52,4.31-9,9.05L19.23,52.17v0h86.82l-3.83-15.92c-1-4.85-4.07-9-9-9Zm-42.3-6.34H42.22l-1.9-4.32h-1v4.32H34.67V6.34H42q5,0,5,5.09c0,2.32-.72,3.86-2.16,4.6l2.51,4.83Zm-8-10.8V13h1.07a3.06,3.06,0,0,0,1.22-.18c.25-.11.38-.38.38-.8V11c0-.42-.13-.69-.38-.8a3.06,3.06,0,0,0-1.22-.18Zm19.35,5.32H54v1.77h5.69v3.71H49.37V6.34H59.6L59,10.06H54V12h4.65v3.37Zm12,5.48-3.56-5.15a2.61,2.61,0,0,1-.23-1.12h-.09v6.27H62.1V6.34h4.37L70,11.5a2.53,2.53,0,0,1,.24,1.12h.09V6.34H75V20.86Zm17.58-10.8H84.84v10.8H80.19V10.06H76.82V6.34H88.21v3.72ZM30.38,73.43,16.32,71.66c-3.32-.37-4.21,1-3.08,3.89l1.52,3.69a5.33,5.33,0,0,0,1.9,2.12,6.43,6.43,0,0,0,3.15.87l12.54.1c3,0,4.34-1.22,3.39-4a6.78,6.78,0,0,0-5.36-4.9Zm62.12,0,14.06-1.77c3.32-.37,4.21,1,3.08,3.89l-1.52,3.69a5.33,5.33,0,0,1-1.9,2.12,6.43,6.43,0,0,1-3.15.87l-12.54.1c-3,0-4.34-1.22-3.39-4a6.78,6.78,0,0,1,5.36-4.9Z"/></svg>