<?xml version="1.0" encoding="utf-8"?>
<svg version="1.1" id="Gopher" x="0px" y="0px" viewBox="0 0 215.6 281.6" enable-background="new 0 0 215.6 281.6" xmlns="http://www.w3.org/2000/svg" xmlns:xlink="http://www.w3.org/1999/xlink">
  <g>
    <path fill="#8CC5E7" d="M207.3,44.6c-6.7-13.7-22.9-1.6-27-5.9c-21-21.6-46.4-27-66.3-28c0,0-9,0-11,0c-20,0.5-45.4,6.3-66.3,28 c-4.1,4.3-20.4-7.8-27,5.9c-7.7,16,15.7,17.6,14.5,24.7c-2.3,12.8-0.8,31.8,1,50.5C28,151.5,4.3,227.4,53.6,257.9 c9.3,5.8,34.4,9,56.2,9.5l0,0c0,0,0.1,0,0.1,0c0,0,0.1,0,0.1,0l0,0c21.8-0.5,43.9-3.7,53.2-9.5c49.4-30.5,25.7-106.4,28.6-138.1 c1.7-18.7,3.2-37.7,1-50.5C191.6,62.2,215,60.5,207.3,44.6z"/>
    <g>
      <path fill="#E0DEDC" d="M143.2,54.3c-33.4,3.9-28.9,38.7-16,50c24,21,49,0,46.2-21.2C170.9,62.7,153.6,53.1,143.2,54.3z"/>
      <circle fill="#111212" cx="145.5" cy="84.3" r="11.4"/>
      <circle fill="#FFFFFF" cx="142.5" cy="79.4" r="3.6"/>
    </g>
    <g>
      <path fill="#B8937F" d="M108.5,107c-16,2.4-21.7,7-20.5,14.2c2,11.8,39.7,10.5,40.9,0.6C129.9,113.3,114.8,106.1,108.5,107z"/>
      <path d="M98.2,111.8c-2.7,9.8,21.7,8.3,21.1,2c-0.3-3.7-3.6-8.4-12.3-8.2C103.6,105.7,99.4,107.2,98.2,111.8z"/>
      <path fill="#E0DEDC" d="M99,127.7c-0.9,0.4-2.4,10.2,2.2,10.7c3.1,0.3,11.6,1.3,13.6,0c3.9-2.5,3.5-8.5,1.3-10 C112.4,126,100,127.2,99,127.7z"/>
    </g>
    <g>
      <path fill="#E0DEDC" d="M73.6,54.3c33.4,3.9,28.9,38.7,16,50c-24,21-49,0-46.2-21.2C46,62.7,63.3,53.1,73.6,54.3z"/>
      <circle fill="#111212" cx="71.4" cy="84.3" r="11.4"/>
      <circle fill="#FFFFFF" cx="74.4" cy="79.4" r="3.6"/>
    </g>
    <path fill="#B8937F" d="M193.6,186.7c11,0.1,5.6-23.5-1.2-18.8c-3.3,2.3-3.9,7.6-3.9,12.1C188.5,182.5,190.5,186.6,193.6,186.7z"/>
    <path fill="#B8937F" d="M23.3,186.7c-11,0.1-5.6-23.5,1.2-18.8c3.3,2.3,3.9,7.6,3.9,12.1C28.4,182.5,26.4,186.6,23.3,186.7z"/>
    <path fill="#B8937F" d="M172.7,259.2c-6-8.9-11.4-2-20.1,2.4c-4.1,2.1,6.8,9.6,19,4C174.8,264.1,174.7,262.1,172.7,259.2z"/>
    <path fill="#B8937F" d="M44.2,260.2c6-8.9,11.4-2,20.1,2.4c4.1,2.1-6.8,9.6-19,4C42.1,265.1,42.2,263.1,44.2,260.2z"/>
    <path fill="#3C89BF" d="M188.6,47c-0.6,2.1,2.1,1.8,3.1,8.3c0.4,2.4,9-3.5,5.5-7.8C194.3,43.9,189.1,44.9,188.6,47z"/>
    <path fill="#3C89BF" d="M28.3,47c0.6,2.1-2.1,1.8-3.1,8.3c-0.4,2.4-9-3.5-5.5-7.8C22.5,43.9,27.7,44.9,28.3,47z"/>
  </g>
  <path fill="#D7AE30" opacity="1.000000" stroke="none" d="M 188.912 110.856 C 189.048 110.923 189.149 111.008 189.267 111.055 C 190.015 111.356 190.684 111.778 191.312 112.264 C 191.652 112.527 191.992 112.792 192.325 113.063 C 192.628 113.311 192.947 113.548 193.216 113.828 C 193.554 114.18 193.845 114.572 194.161 114.943 C 194.404 115.229 194.667 115.501 194.899 115.796 C 195.131 116.088 195.343 116.396 195.547 116.707 C 195.849 117.166 196.156 117.624 196.425 118.101 C 196.805 118.773 197.173 119.453 197.508 120.147 C 197.938 121.035 198.36 121.928 198.727 122.841 C 198.931 123.349 199.016 123.901 199.154 124.433 C 199.283 124.929 199.429 125.422 199.534 125.923 C 199.607 126.274 199.621 126.636 199.668 126.993 C 199.725 127.417 199.785 127.841 199.853 128.264 C 199.89 128.498 199.945 128.729 200.012 128.946 C 200.033 128.955 200.033 128.981 200.033 129.027 C 199.49 129.2 198.953 129.376 198.403 129.5 C 197.836 129.628 197.256 129.703 196.683 129.809 C 196.498 129.843 196.319 129.908 196.135 129.947 C 196.052 129.964 195.963 129.952 195.858 129.924 C 195.978 129.638 196.166 129.406 196.093 129.075 C 195.964 128.485 195.595 128.059 195.145 127.675 C 195.076 127.616 195.028 127.533 194.972 127.436 C 194.972 127.256 194.971 127.101 194.987 126.928 C 195.062 126.901 195.121 126.885 195.18 126.883 C 195.745 126.867 196.106 126.444 195.95 125.932 C 195.799 125.436 195.589 124.958 195.426 124.465 C 195.044 123.306 194.683 122.139 194.297 120.981 C 193.92 119.846 193.355 118.795 192.645 117.823 C 192.374 117.451 192.158 116.994 191.634 116.845 C 191.594 116.834 191.568 116.755 191.551 116.703 C 191.512 116.589 191.472 116.473 191.453 116.355 C 191.312 115.492 191.038 114.67 190.644 113.883 C 190.436 113.467 190.187 113.076 189.745 112.854 C 189.097 112.53 188.598 112.07 188.262 111.447 C 188.276 111.263 188.29 111.08 188.286 110.876 C 188.474 110.856 188.679 110.856 188.912 110.856 M 191.739 114.218 C 192.037 114.461 192.332 114.707 192.634 114.944 C 192.817 115.087 192.906 114.962 192.893 114.809 C 192.877 114.623 192.842 114.416 192.743 114.261 C 192.316 113.587 191.692 113.114 190.969 112.756 C 190.885 112.715 190.785 112.701 190.596 112.646 C 190.804 113.338 191.307 113.731 191.739 114.218 Z" style=""/>
  <path fill="#0090D1" opacity="1.000000" stroke="none" d="M 155.782 144.309 C 155.91 144.344 156.035 144.396 156.165 144.412 C 156.53 144.458 156.897 144.483 157.262 144.527 C 157.712 144.582 158.161 144.646 158.609 144.709 C 158.766 144.731 158.921 144.762 159.108 144.812 C 159.239 144.97 159.34 145.106 159.435 145.257 C 159.315 145.425 159.227 145.612 159.078 145.724 C 158.873 145.877 158.614 145.962 158.394 146.099 C 158.114 146.273 157.84 146.459 157.583 146.663 C 157.45 146.767 157.362 146.923 157.244 147.073 C 157.176 147.198 157.12 147.305 157.05 147.418 C 157.019 147.436 157.01 147.452 157.005 147.492 C 156.842 147.953 156.785 148.408 156.913 148.859 C 157.188 149.825 157.84 150.527 158.684 151.079 C 159.166 151.394 159.635 151.738 160.148 151.999 C 161.123 152.496 162.109 152.982 163.123 153.4 C 163.812 153.683 164.552 153.856 165.277 154.052 C 165.676 154.16 166.09 154.218 166.499 154.289 C 166.902 154.36 167.307 154.426 167.713 154.483 C 168.004 154.523 168.297 154.546 168.589 154.576 C 168.914 154.61 169.238 154.645 169.562 154.674 C 169.721 154.689 169.881 154.691 170.04 154.696 C 170.189 154.7 170.339 154.696 170.488 154.705 C 170.84 154.725 171.191 154.77 171.543 154.769 C 172.282 154.768 173.021 154.741 173.76 154.73 C 174.293 154.722 174.827 154.727 175.361 154.72 C 175.551 154.717 175.74 154.697 175.93 154.687 C 176.285 154.668 176.642 154.664 176.995 154.627 C 177.378 154.587 177.757 154.508 178.139 154.46 C 178.493 154.416 178.852 154.406 179.203 154.352 C 179.637 154.285 180.066 154.184 180.498 154.103 C 181.205 153.969 181.926 153.884 182.616 153.697 C 183.578 153.436 184.522 153.111 185.466 152.791 C 186.552 152.421 187.546 151.867 188.487 151.241 C 189.269 150.72 190.006 150.136 190.754 149.569 C 191.222 149.214 191.682 148.85 192.126 148.468 C 192.503 148.143 192.85 147.785 193.21 147.443 C 193.246 147.409 193.282 147.374 193.321 147.343 C 193.685 147.041 194.053 146.742 194.413 146.436 C 194.626 146.255 194.819 146.051 195.038 145.878 C 195.367 145.618 195.712 145.375 196.079 145.103 C 196.113 145.259 196.15 145.428 196.186 145.597 C 196.231 146.493 196.268 147.39 196.323 148.286 C 196.394 149.439 196.486 150.592 196.55 151.746 C 196.558 151.88 196.488 152.063 196.386 152.152 C 195.359 153.045 195.447 153.781 196.274 154.791 C 196.428 154.979 196.563 155.188 196.669 155.405 C 196.866 155.808 196.769 156.241 196.368 156.551 C 196.119 156.745 195.999 156.963 195.961 157.252 C 195.858 158.016 195.733 158.778 195.649 159.543 C 195.583 160.156 195.556 160.773 195.524 161.389 C 195.477 162.286 195.472 163.186 195.393 164.081 C 195.286 165.287 195.121 166.488 194.99 167.692 C 194.915 168.372 194.857 169.053 194.794 169.733 C 194.672 171.055 194.582 172.38 194.42 173.697 C 194.285 174.802 194.046 175.896 193.894 176.999 C 193.833 177.44 193.871 177.894 193.879 178.342 C 193.892 179.01 193.915 179.678 193.939 180.346 C 193.954 180.791 194.01 181.237 193.993 181.68 C 193.95 182.779 193.809 183.865 193.372 184.897 C 193.337 184.981 193.326 185.091 193.349 185.177 C 193.472 185.63 193.31 186.006 192.943 186.255 C 192.569 186.509 192.138 186.685 191.729 186.891 C 191.607 186.953 191.477 187.001 191.351 187.055 C 191.349 187.082 191.348 187.11 191.346 187.137 C 191.639 187.202 191.932 187.268 192.304 187.351 C 192.104 187.637 191.968 187.948 191.731 188.148 C 191.226 188.577 190.706 189.013 190.124 189.33 C 189.071 189.902 187.92 190.248 186.744 190.542 C 185.633 190.819 184.511 190.905 183.381 190.99 C 182.101 191.085 180.821 191.184 179.541 191.277 C 179.157 191.305 178.773 191.325 178.388 191.338 C 177.629 191.363 176.868 191.392 176.108 191.401 C 174.059 191.424 172.009 191.462 169.96 191.447 C 168.767 191.438 167.572 191.365 166.382 191.272 C 165.038 191.167 163.691 191.045 162.357 190.86 C 160.863 190.653 159.375 190.393 157.898 190.094 C 157.531 190.019 157.184 189.743 156.883 189.497 C 155.88 188.678 155.29 187.593 154.939 186.405 C 154.546 185.079 154.237 183.73 153.891 182.391 C 153.772 181.93 153.652 181.469 153.531 181.005 C 153.936 181.045 154.324 181.083 154.712 181.121 C 154.728 181.092 154.743 181.063 154.758 181.034 C 154.693 180.95 154.635 180.857 154.559 180.783 C 154.117 180.354 153.651 179.946 153.232 179.498 C 152.912 179.156 152.664 178.745 152.745 178.263 C 152.796 177.957 152.948 177.665 153.062 177.37 C 153.104 177.263 153.167 177.163 153.238 177.025 C 152.989 177.062 152.777 177.092 152.566 177.126 C 152.361 177.16 152.249 177.076 152.186 176.889 C 151.665 175.339 151.115 173.798 150.62 172.241 C 150.119 170.664 149.65 169.077 149.206 167.484 C 148.655 165.506 148.135 163.518 147.617 161.531 C 147.219 160.009 146.834 158.484 146.463 156.956 C 146.161 155.713 145.9 154.462 145.593 153.22 C 145.51 152.881 145.48 152.498 145.081 152.287 C 145.009 152.249 145.076 151.991 145.048 151.839 C 145.028 151.724 144.96 151.616 144.912 151.505 C 144.881 151.513 144.849 151.521 144.817 151.528 C 144.794 151.241 144.772 150.953 144.749 150.666 C 144.745 150.627 144.757 150.567 144.735 150.553 C 144.436 150.358 144.574 150.043 144.493 149.792 C 144.279 149.137 144.45 148.475 144.376 147.822 C 144.362 147.697 144.223 147.585 144.206 147.459 C 144.145 147.022 144.125 146.579 144.063 146.142 C 144.021 145.854 143.919 145.575 143.869 145.288 C 143.763 144.684 143.672 144.077 143.565 143.405 C 143.932 143.485 144.241 143.552 144.613 143.633 C 144.33 143.385 144.086 143.171 143.836 142.953 C 143.978 142.719 144.177 142.812 144.348 142.857 C 145.555 143.169 146.759 143.49 147.965 143.803 C 148.099 143.838 148.24 143.846 148.377 143.866 C 148.389 143.841 148.4 143.816 148.411 143.791 C 148.207 143.664 148.004 143.539 147.784 143.402 C 147.986 143.316 148.174 143.235 148.411 143.149 C 148.633 143.144 148.811 143.118 148.978 143.148 C 149.283 143.202 149.67 142.956 149.885 143.362 C 149.891 143.373 149.924 143.369 149.943 143.375 C 150.345 143.489 150.821 143.318 151.164 143.665 C 151.174 143.675 151.203 143.666 151.223 143.669 C 151.537 143.708 151.851 143.745 152.164 143.789 C 152.22 143.797 152.296 143.817 152.321 143.856 C 152.464 144.07 152.683 144.079 152.909 144.079 C 153.508 144.078 154.107 144.077 154.706 144.08 C 154.795 144.081 154.925 144.069 154.966 144.118 C 155.193 144.388 155.497 144.302 155.782 144.309 M 158.092 162.977 C 158.077 162.989 158.062 162.993 158.039 163.035 C 157.895 163.207 157.755 163.382 157.603 163.548 C 157.536 163.622 157.446 163.677 157.322 163.736 C 156.776 163.912 156.536 164.371 156.346 164.818 C 156.184 165.201 156.164 165.639 156.073 166.051 C 155.886 166.888 155.951 167.715 156.185 168.534 C 156.557 169.835 157.343 170.864 158.42 171.712 C 159.115 172.259 159.878 172.688 160.731 172.939 C 161.275 173.099 161.852 173.153 162.413 173.265 C 163.21 173.424 163.997 173.288 164.765 173.133 C 166.891 172.703 168.491 171.571 169.475 169.692 C 170.103 168.495 170.33 167.22 170.091 165.897 C 169.837 164.493 169.017 163.393 167.873 162.535 C 166.14 161.235 164.155 160.72 161.958 160.916 C 161.038 160.999 160.189 161.247 159.417 161.726 C 158.89 162.053 158.393 162.418 158.095 162.968 C 158.095 162.968 158.101 162.967 158.092 162.977 M 167.509 173.026 C 167.376 173.159 167.233 173.286 167.111 173.428 C 166.554 174.073 166.17 174.763 166.309 175.655 C 166.359 175.98 166.513 176.09 166.789 176.125 C 167.55 176.222 168.086 176.602 168.275 177.317 C 168.429 177.9 168.487 178.508 168.586 179.105 C 168.715 179.877 168.831 180.639 169.647 181.09 C 170.063 181.32 170.184 181.344 170.497 180.98 C 170.542 180.928 170.6 180.886 170.658 180.846 C 171.131 180.528 171.646 180.543 172.18 180.663 C 172.764 180.794 173.346 180.966 173.939 181.025 C 174.69 181.101 175.308 180.306 175.135 179.588 C 174.888 178.564 175.05 177.936 176.029 177.253 C 176.405 176.991 176.807 176.764 177.205 176.532 C 177.861 176.149 177.891 176.065 177.668 175.367 C 177.293 174.194 176.584 173.23 175.643 172.421 C 174.359 171.317 172.869 170.684 171.121 170.694 C 170.53 170.696 170.02 170.816 169.567 171.278 C 168.951 171.905 168.221 172.429 167.509 173.026 M 180.254 172.791 C 180.78 172.733 181.322 172.733 181.829 172.606 C 183.874 172.094 185.455 170.977 186.468 169.174 C 186.859 168.478 187.067 167.728 187.113 166.936 C 187.158 166.139 186.955 165.391 186.679 164.648 C 185.916 162.594 184.404 161.292 182.298 160.569 C 181.141 160.172 179.945 160.087 178.735 160.174 C 178.31 160.204 177.876 160.279 177.474 160.413 C 176.666 160.681 175.936 161.104 175.281 161.631 C 173.499 163.06 172.36 164.782 172.691 167.121 C 172.764 167.636 172.924 168.153 173.13 168.634 C 173.545 169.607 174.283 170.346 175.126 171.002 C 175.953 171.645 176.897 172.084 177.883 172.421 C 178.619 172.671 179.396 172.829 180.254 172.791 M 166.976 183.682 C 166.365 183.621 165.754 183.566 165.144 183.499 C 164.417 183.419 163.688 183.344 162.964 183.238 C 162.562 183.18 162.17 182.999 161.77 182.988 C 160.902 182.963 160.097 182.699 159.276 182.492 C 158.456 182.286 157.641 182.059 156.813 181.893 C 156.604 181.851 156.326 181.968 156.132 182.088 C 156.039 182.146 156.047 182.384 156.058 182.538 C 156.061 182.573 156.26 182.61 156.373 182.622 C 157.113 182.703 157.86 182.748 158.596 182.859 C 159.599 183.011 160.592 183.227 161.594 183.385 C 162.687 183.559 163.783 183.736 164.885 183.84 C 165.62 183.909 166.368 183.853 167.11 183.853 C 167.111 183.824 167.112 183.794 167.113 183.765 C 167.083 183.74 167.052 183.716 166.976 183.682 Z" style=""/>
  <path fill="#3797A8" opacity="1.000000" stroke="none" d="M 196.19 145.57 C 196.15 145.428 196.113 145.259 196.079 145.103 C 195.712 145.375 195.367 145.618 195.038 145.878 C 194.819 146.051 194.626 146.255 194.413 146.436 C 194.053 146.742 193.685 147.041 193.321 147.343 C 193.282 147.374 193.246 147.409 193.21 147.443 C 192.85 147.785 192.503 148.143 192.126 148.468 C 191.682 148.85 191.222 149.214 190.754 149.569 C 190.006 150.136 189.269 150.72 188.487 151.241 C 187.546 151.867 186.552 152.421 185.466 152.791 C 184.522 153.111 183.578 153.436 182.616 153.697 C 181.926 153.884 181.205 153.969 180.498 154.103 C 180.066 154.184 179.637 154.285 179.203 154.352 C 178.852 154.406 178.493 154.416 178.139 154.46 C 177.757 154.508 177.378 154.587 176.995 154.627 C 176.642 154.664 176.285 154.668 175.93 154.687 C 175.74 154.697 175.551 154.717 175.361 154.72 C 174.827 154.727 174.293 154.722 173.76 154.73 C 173.021 154.741 172.282 154.768 171.543 154.769 C 171.191 154.77 170.84 154.725 170.488 154.705 C 170.339 154.696 170.189 154.7 170.04 154.696 C 169.881 154.691 169.721 154.689 169.562 154.674 C 169.238 154.645 168.914 154.61 168.589 154.576 C 168.297 154.546 168.004 154.523 167.713 154.483 C 167.307 154.426 166.902 154.36 166.499 154.289 C 166.09 154.218 165.676 154.16 165.277 154.052 C 164.552 153.856 163.812 153.683 163.123 153.4 C 162.109 152.982 161.123 152.496 160.148 151.999 C 159.635 151.738 159.166 151.394 158.684 151.079 C 157.84 150.527 157.188 149.825 156.913 148.859 C 156.785 148.408 156.842 147.953 157.023 147.5 C 157.092 147.491 157.143 147.507 157.185 147.494 C 157.629 147.356 158.071 147.211 158.516 147.075 C 158.552 147.063 158.604 147.1 158.64 147.135 C 158.573 147.339 158.515 147.523 158.437 147.771 C 159.284 148.006 160.094 148.292 160.93 148.451 C 162.222 148.698 163.528 148.889 164.836 149.045 C 165.875 149.17 166.926 149.203 167.971 149.286 C 168.472 149.326 168.971 149.401 169.472 149.44 C 169.976 149.478 170.481 149.502 170.985 149.508 C 171.084 149.51 171.251 149.418 171.272 149.34 C 171.357 149.027 171.586 149.045 171.836 149.045 C 171.949 149.045 172.117 149.012 172.163 148.938 C 172.287 148.741 172.386 148.764 172.539 148.895 C 173 149.293 173.555 149.397 174.152 149.336 C 174.448 149.306 175.351 149.42 175.626 149.446 C 175.891 149.471 176.169 149.388 176.439 149.343 C 177.838 149.11 179.24 148.894 180.633 148.634 C 182.035 148.372 183.438 148.061 184.69 147.386 C 185.709 146.837 186.681 146.197 187.618 145.526 C 188.241 145.08 188.804 144.533 188.963 143.723 C 189.016 143.49 189.044 143.261 189.1 143.03 C 190.59 143.027 192.051 143.023 193.513 143.03 C 193.706 143.032 193.842 143.009 193.849 142.824 C 194.625 142.773 195.375 142.725 196.124 142.674 C 196.183 142.67 196.286 142.661 196.291 142.639 C 196.337 142.425 196.51 142.509 196.633 142.503 C 196.856 142.492 197.081 142.483 197.302 142.507 C 197.403 142.518 197.494 142.611 197.59 142.666 C 197.721 143.026 197.618 143.223 197.313 143.45 C 197.179 143.549 197.103 143.73 196.866 143.785 C 196.752 143.833 196.655 143.867 196.626 143.929 C 196.567 144.057 196.588 144.274 196.498 144.324 C 196.285 144.442 196.317 144.601 196.314 144.77 C 196.274 144.833 196.204 144.894 196.198 144.959 C 196.184 145.153 196.194 145.348 196.19 145.57 Z" style=""/>
  <path fill="#F6D91E" opacity="1.000000" stroke="none" d="M 161.44 144.374 C 162.645 143.484 163.907 142.657 165.045 141.693 C 167.564 139.559 170.021 137.359 172.5 135.182 C 172.852 134.873 173.184 134.542 173.518 134.214 C 173.717 134.018 173.898 133.877 174.236 133.885 C 174.885 133.9 175.537 133.817 176.188 133.783 C 177.02 133.74 177.853 133.713 178.685 133.665 C 179.514 133.616 180.343 133.551 181.172 133.491 C 181.96 133.434 182.748 133.382 183.535 133.313 C 184.323 133.244 185.11 133.158 185.898 133.078 C 186.796 132.987 187.693 132.888 188.591 132.803 C 189.15 132.749 189.713 132.726 190.272 132.668 C 190.799 132.614 191.322 132.524 191.848 132.465 C 192.515 132.39 193.184 132.334 193.851 132.261 C 194.306 132.21 194.759 132.144 195.263 132.085 C 195.373 132.114 195.472 132.13 195.488 132.173 C 195.572 132.406 195.68 132.643 195.697 132.883 C 195.747 133.573 195.627 134.238 195.325 134.875 C 195.144 135.258 195.057 135.683 194.867 136.06 C 194.512 136.768 194.112 137.455 193.732 138.15 C 193.501 138.571 193.238 138.979 193.05 139.417 C 192.718 140.19 192.33 140.922 191.604 141.422 C 191.134 141.746 190.646 142.049 190.143 142.323 C 189.908 142.451 189.618 142.486 189.338 142.573 C 189.05 142.671 188.783 142.803 188.503 142.838 C 187.806 142.924 187.103 142.99 186.4 143.017 C 185.873 143.037 185.342 143 184.816 142.958 C 184.527 142.935 184.244 142.85 183.937 142.788 C 183.989 142.302 183.919 141.822 183.324 141.67 C 183.057 141.602 182.76 141.712 182.582 141.957 C 182.797 142.05 183.023 142.124 183.218 142.245 C 183.289 142.289 183.315 142.448 183.302 142.547 C 183.296 142.594 183.15 142.624 183.068 142.664 C 183.018 142.687 182.945 142.7 182.922 142.739 C 182.726 143.077 182.358 143.127 182.032 143.175 C 181.368 143.271 180.696 143.313 180.026 143.359 C 179.955 143.364 179.844 143.259 179.806 143.181 C 179.725 143.012 179.692 142.822 179.616 142.651 C 179.564 142.535 179.473 142.435 179.399 142.328 C 179.288 142.416 179.159 142.491 179.069 142.596 C 178.888 142.804 178.761 143.061 178.555 143.239 C 177.913 143.797 177.052 143.586 176.533 143.173 C 175.843 142.624 175.652 141.836 175.857 141.018 C 176.064 140.193 176.333 139.377 176.647 138.583 C 177.043 137.584 177.351 136.578 177.305 135.5 C 177.298 135.316 177.213 135.135 177.163 134.953 C 177.126 134.954 177.089 134.956 177.052 134.957 C 176.77 135.671 176.463 136.377 176.213 137.101 C 175.937 137.899 175.701 138.711 175.473 139.522 C 175.341 139.991 175.262 140.474 175.15 140.948 C 175.046 141.391 174.892 141.827 174.831 142.274 C 174.774 142.7 174.523 142.912 174.15 143.056 C 174.011 143.109 173.873 143.166 173.735 143.224 C 173.312 143.401 173.074 143.263 173.1 142.813 C 173.118 142.512 173.181 142.203 173.283 141.917 C 173.565 141.131 173.87 140.351 174.181 139.574 C 174.432 138.949 174.712 138.336 174.965 137.712 C 175.039 137.529 174.987 137.332 174.76 137.304 C 174.478 137.269 174.176 137.249 173.905 137.31 C 173.407 137.423 173.1 137.834 172.813 138.184 C 172.421 138.66 172.138 139.223 171.828 139.759 C 171.386 140.524 170.981 141.309 170.522 142.065 C 170.284 142.457 170.013 142.857 169.665 143.155 C 169.343 143.432 168.98 143.714 168.483 143.74 C 168.198 143.755 167.922 143.912 167.636 143.935 C 167.435 143.952 167.186 143.901 167.025 143.791 C 166.823 143.653 166.97 143.441 167.052 143.266 C 167.057 143.257 167.068 143.252 167.073 143.244 C 167.367 142.694 167.835 142.279 168.275 141.846 C 169.136 140.997 170.011 140.162 170.875 139.315 C 171.047 139.145 171.195 138.952 171.348 138.764 C 171.725 138.301 172.114 137.845 172.469 137.367 C 172.784 136.943 173.061 136.493 173.37 136.03 C 173.254 136.005 173.185 135.972 173.167 135.989 C 172.846 136.286 172.521 136.58 172.217 136.892 C 171.761 137.362 171.322 137.847 170.871 138.322 C 170.665 138.54 170.446 138.748 170.239 138.965 C 170.092 139.119 169.952 139.278 169.816 139.44 C 169.638 139.652 169.482 139.881 169.293 140.082 C 169.012 140.381 168.71 140.663 168.418 140.951 C 168.017 141.348 167.641 141.774 167.206 142.134 C 166.777 142.488 166.297 142.789 165.823 143.089 C 165.074 143.562 164.268 143.909 163.367 144.02 C 163.296 144.029 163.229 144.068 163.161 144.094 C 163.226 144.14 163.288 144.193 163.358 144.23 C 163.4 144.253 163.455 144.252 163.488 144.279 C 163.222 144.306 162.948 144.254 162.727 144.335 C 162.291 144.497 161.87 144.437 161.44 144.374 M 188.961 140.219 C 189.567 140.236 190.175 140.295 190.776 140.253 C 191.044 140.234 191.321 140.04 191.547 139.869 C 191.641 139.797 191.682 139.546 191.625 139.435 C 191.567 139.322 191.378 139.357 191.283 139.503 C 191.275 139.514 191.224 139.493 191.197 139.502 C 190.553 139.703 189.894 139.75 189.236 139.62 C 188.761 139.527 188.304 139.353 187.834 139.235 C 187.054 139.041 186.367 138.656 185.677 138.284 C 185.324 138.095 185.023 137.814 184.664 137.641 C 184.397 137.513 184.278 137.352 184.244 137.051 C 184.394 137.051 184.523 137.05 184.653 137.051 C 185.542 137.06 186.363 137.349 187.179 137.643 C 187.863 137.89 188.531 138.178 189.211 138.435 C 189.323 138.477 189.461 138.457 189.586 138.465 C 189.595 138.434 189.604 138.404 189.614 138.373 C 189.312 138.159 189.026 137.921 188.705 137.738 C 188.207 137.455 187.697 137.186 187.17 136.959 C 186.895 136.841 186.568 136.763 186.271 136.779 C 185.923 136.797 185.61 136.902 185.226 136.806 C 184.758 136.688 184.306 136.552 183.876 136.355 C 183.15 136.023 182.44 135.66 181.722 135.313 C 181.504 135.207 181.288 135.194 181.064 135.376 C 181.64 135.946 182.178 136.53 182.771 137.055 C 183.926 138.08 185.184 138.984 186.648 139.562 C 187.373 139.847 188.153 140.004 188.961 140.219 M 194.024 135.413 C 194.294 134.846 194.44 134.25 194.371 133.629 C 194.354 133.469 194.207 133.255 194.059 133.186 C 193.646 132.996 193.228 133.118 192.821 133.269 C 192.902 133.386 192.957 133.491 193.035 133.575 C 193.669 134.256 193.646 135.003 193.297 135.792 C 193.106 136.223 192.931 136.66 192.748 137.094 C 192.862 137.088 192.927 137.05 192.978 137 C 193.437 136.556 193.723 136.007 194.024 135.413 M 179.226 136.469 C 179.562 137.327 180.067 138.052 181.014 138.552 C 180.974 138.27 180.983 138.056 180.91 137.872 C 180.752 137.477 180.589 137.075 180.359 136.718 C 180.089 136.3 179.75 135.922 179.426 135.539 C 179.366 135.467 179.235 135.451 179.136 135.409 C 179.092 135.517 179 135.632 179.015 135.733 C 179.05 135.968 179.136 136.197 179.226 136.469 M 186.075 136.349 C 186.702 136.412 187.329 136.491 187.961 136.329 C 187.52 135.562 186.219 135.437 185.5 136.121 C 185.691 136.196 185.86 136.262 186.075 136.349 M 191.994 137.633 C 192.169 137.436 192.093 137.209 191.973 137.06 C 191.706 136.729 191.393 136.432 191.084 136.136 C 190.993 136.048 190.856 136 190.733 135.949 C 190.503 135.854 190.453 135.995 190.492 136.161 C 190.526 136.307 190.6 136.451 190.683 136.58 C 190.992 137.053 191.411 137.41 191.994 137.633 Z" style=""/>
  <path fill="#F5D91E" opacity="1.000000" stroke="none" d="M 194.97 127.462 C 195.028 127.533 195.076 127.616 195.145 127.675 C 195.595 128.059 195.964 128.485 196.093 129.075 C 196.166 129.406 195.978 129.638 195.837 129.917 C 195.763 129.994 195.7 130.068 195.619 130.101 C 194.224 130.67 192.769 131.054 191.255 131.389 C 191.166 131.403 191.121 131.42 191.076 131.437 C 190.967 131.461 190.859 131.485 190.708 131.507 C 190.619 131.521 190.574 131.537 190.528 131.553 C 190.096 131.637 189.664 131.72 189.188 131.8 C 189.099 131.812 189.056 131.827 189.012 131.842 C 188.721 131.888 188.431 131.935 188.095 131.978 C 188.005 131.988 187.96 132.003 187.915 132.017 C 187.849 132.026 187.783 132.035 187.672 132.038 C 187.581 132.047 187.535 132.061 187.488 132.076 C 187.439 132.083 187.388 132.09 187.293 132.093 C 187.186 132.104 187.124 132.119 187.063 132.134 C 186.066 132.238 185.072 132.364 184.074 132.436 C 183.54 132.474 182.998 132.403 182.46 132.405 C 181.937 132.407 181.414 132.438 180.835 132.449 C 180.595 132.442 180.41 132.443 180.225 132.444 C 179.914 132.385 179.579 132.376 179.298 132.253 C 178.876 132.068 178.854 131.775 179.161 131.452 C 179.766 130.817 180.524 130.438 181.375 130.204 C 182.17 129.986 182.787 129.532 183.304 128.91 C 183.585 128.572 183.975 128.319 184.313 128.025 C 184.392 127.955 184.46 127.873 184.495 127.74 C 184.186 127.903 183.863 128.048 183.569 128.234 C 182.506 128.902 181.45 129.581 180.397 130.263 C 179.941 130.559 179.099 130.492 178.721 130.109 C 178.433 129.817 178.416 129.447 178.546 129.117 C 178.742 128.623 178.964 128.122 179.278 127.693 C 179.75 127.047 180.286 126.439 180.844 125.858 C 181.156 125.532 181.588 125.34 182.157 125.274 C 182.104 125.48 182.095 125.654 182.015 125.791 C 181.725 126.291 181.407 126.777 181.109 127.273 C 181.013 127.432 180.946 127.608 180.898 127.792 C 181.372 127.619 181.766 127.421 181.952 126.918 C 182.175 126.314 182.584 125.832 183.342 125.702 C 183.51 125.71 183.632 125.709 183.754 125.708 C 183.765 125.706 183.777 125.704 183.814 125.706 C 183.839 125.711 183.856 125.711 183.856 125.711 C 184.58 125.875 185.038 126.353 185.441 126.934 C 185.462 126.806 185.46 126.669 185.458 126.532 C 185.537 126.087 185.874 125.823 186.557 125.707 C 186.645 125.695 186.689 125.68 186.734 125.666 C 186.821 125.656 186.908 125.647 187.047 125.644 C 187.202 125.651 187.306 125.651 187.409 125.651 C 187.525 125.63 187.64 125.61 187.837 125.575 C 187.608 125.499 187.448 125.458 187.299 125.394 C 187.147 125.328 187.006 125.239 186.854 125.157 C 187.065 124.881 187.265 124.617 187.465 124.355 C 187.438 124.323 187.411 124.291 187.384 124.259 C 187.173 124.306 186.96 124.345 186.751 124.4 C 186.111 124.569 185.476 124.764 184.83 124.908 C 184.575 124.964 184.293 124.893 184.027 124.914 C 183.731 124.937 183.44 125.014 183.144 125.041 C 182.863 125.067 182.575 125.089 182.297 125.058 C 181.978 125.024 181.761 124.706 181.832 124.381 C 181.9 124.075 181.987 123.764 182.129 123.485 C 182.574 122.613 183.055 121.757 183.51 120.889 C 183.96 120.027 184.405 119.163 184.836 118.292 C 185.745 116.455 186.638 114.61 187.129 112.617 C 187.182 112.401 187.196 112.176 187.226 111.977 C 187.546 111.804 187.881 111.623 188.239 111.444 C 188.598 112.07 189.097 112.53 189.745 112.854 C 190.187 113.076 190.436 113.467 190.644 113.883 C 191.038 114.67 191.312 115.492 191.453 116.355 C 191.472 116.473 191.512 116.589 191.551 116.703 C 191.568 116.755 191.594 116.834 191.634 116.845 C 192.158 116.994 192.374 117.451 192.645 117.823 C 193.355 118.795 193.92 119.846 194.297 120.981 C 194.683 122.139 195.044 123.306 195.426 124.465 C 195.589 124.958 195.799 125.436 195.95 125.932 C 196.106 126.444 195.745 126.867 195.18 126.883 C 195.121 126.885 195.062 126.901 194.964 126.926 C 194.448 126.779 193.952 126.653 193.499 126.442 C 193.134 126.27 192.833 125.984 192.685 125.595 C 192.504 125.12 192.67 124.736 193.021 124.391 C 193.094 124.32 193.16 124.187 193.143 124.098 C 193.064 123.679 192.954 123.266 192.848 122.822 C 192.436 123.039 192.08 123.226 191.693 123.43 C 191.796 123.521 191.941 123.641 192.076 123.77 C 192.437 124.117 192.478 124.569 192.114 124.839 C 191.801 125.072 191.444 125.3 191.068 125.396 C 190.315 125.59 189.547 125.764 188.753 125.714 C 188.706 125.711 188.658 125.729 188.61 125.737 C 188.667 125.797 188.722 125.815 188.778 125.828 C 189.151 125.914 189.5 126.052 189.783 126.307 C 190.022 126.523 190.008 126.851 189.778 126.941 C 189.414 127.083 189.057 127.242 188.697 127.394 C 188.708 127.428 188.719 127.461 188.729 127.494 C 188.835 127.466 188.939 127.432 189.046 127.411 C 189.42 127.336 189.796 127.269 190.169 127.192 C 190.753 127.072 191.34 126.997 191.931 127.127 C 192.152 127.175 192.366 127.296 192.373 127.537 C 192.383 127.83 192.358 128.13 192.301 128.419 C 192.182 129.019 191.741 129.426 191.236 129.709 C 190.767 129.971 190.222 130.114 189.7 130.278 C 189.316 130.399 188.919 130.488 188.521 130.559 C 188.208 130.615 187.884 130.61 187.568 130.652 C 187.301 130.687 187.041 130.77 186.774 130.796 C 186.301 130.843 185.822 130.844 185.35 130.899 C 184.809 130.963 184.274 131.065 183.735 131.15 C 183.052 131.256 182.368 131.361 181.684 131.466 C 181.679 131.499 181.674 131.532 181.669 131.565 C 181.744 131.598 181.82 131.661 181.895 131.66 C 182.616 131.642 183.342 131.654 184.057 131.576 C 184.796 131.496 185.523 131.317 186.257 131.195 C 186.79 131.106 187.326 131.042 187.86 130.961 C 188.256 130.901 188.649 130.816 189.047 130.77 C 189.837 130.679 190.62 130.565 191.355 130.257 C 192.049 129.967 192.667 129.585 193.078 128.937 C 193.221 128.709 193.29 128.55 193.097 128.314 C 192.943 128.125 192.827 127.891 192.758 127.659 C 192.701 127.463 192.65 127.174 192.755 127.05 C 192.865 126.919 193.187 126.853 193.376 126.902 C 193.845 127.023 194.292 127.226 194.748 127.394 C 194.82 127.421 194.896 127.439 194.97 127.462 M 191.777 121.209 C 192.283 120.776 192.701 119.88 192.247 119.109 C 192.166 119.266 192.107 119.42 192.013 119.55 C 191.841 119.786 191.657 120.016 191.462 120.235 C 191.19 120.542 190.921 120.853 190.62 121.132 C 190.213 121.508 189.768 121.846 189.357 122.219 C 189.062 122.488 188.786 122.778 188.522 123.075 C 188.38 123.234 188.259 123.423 188.346 123.684 C 189.178 123.152 189.983 122.664 190.754 122.131 C 191.119 121.879 191.42 121.542 191.777 121.209 M 185.874 119.759 C 185.817 119.918 185.759 120.077 185.692 120.264 C 185.778 120.264 185.854 120.282 185.868 120.261 C 186.383 119.501 186.915 118.75 187.393 117.969 C 187.656 117.541 187.749 117.047 187.738 116.472 C 187.616 116.578 187.537 116.618 187.502 116.68 C 187.028 117.522 186.554 118.364 186.093 119.213 C 186.005 119.376 185.97 119.565 185.874 119.759 M 189.521 118.401 C 189.521 118.476 189.521 118.551 189.521 118.658 C 189.753 118.459 189.96 118.297 190.148 118.117 C 190.344 117.93 190.525 117.728 190.708 117.528 C 191.226 116.961 191.049 116.26 190.301 115.992 C 190.05 116.786 189.799 117.579 189.521 118.401 M 184.081 129.265 C 184.581 128.959 185.08 128.653 185.58 128.347 C 185.564 128.325 185.549 128.303 185.533 128.28 C 184.558 128.581 183.277 129.163 182.84 129.67 C 183.342 129.75 183.679 129.48 184.081 129.265 M 187.136 127.759 C 186.918 127.795 186.696 127.821 186.482 127.872 C 186.4 127.891 186.334 127.97 186.261 128.021 C 186.348 128.07 186.438 128.163 186.522 128.159 C 186.718 128.146 186.916 128.1 187.105 128.043 C 187.244 128 187.369 127.919 187.501 127.854 C 187.492 127.823 187.483 127.791 187.474 127.759 C 187.378 127.759 187.283 127.759 187.136 127.759 M 185.879 123.941 C 186.065 124.114 186.204 123.938 186.307 123.851 C 186.457 123.726 186.564 123.547 186.453 123.309 C 186.253 123.426 186.059 123.52 185.895 123.648 C 185.839 123.693 185.856 123.825 185.879 123.941 Z" style=""/>
  <path fill="#25A9E0" opacity="1.000000" stroke="none" d="M 155.791 144.29 C 155.497 144.302 155.193 144.388 154.966 144.118 C 154.925 144.069 154.795 144.081 154.706 144.08 C 154.107 144.077 153.508 144.078 152.909 144.079 C 152.683 144.079 152.464 144.07 152.321 143.856 C 152.296 143.817 152.22 143.797 152.164 143.789 C 151.851 143.745 151.537 143.708 151.223 143.669 C 151.203 143.666 151.174 143.675 151.164 143.665 C 150.821 143.318 150.345 143.489 149.943 143.375 C 149.924 143.369 149.891 143.373 149.885 143.362 C 149.67 142.956 149.283 143.202 148.978 143.148 C 148.811 143.118 148.633 143.144 148.432 143.144 C 148.378 143.084 148.366 142.979 148.327 142.969 C 147.992 142.881 147.655 142.792 147.313 142.737 C 146.505 142.607 145.689 142.524 144.888 142.368 C 144.342 142.262 143.893 141.983 143.743 141.408 C 143.635 140.998 143.754 140.616 143.943 140.263 C 144.323 139.552 144.897 139.007 145.619 138.61 C 146.178 138.302 146.788 138.182 147.427 138.116 C 148.033 138.053 148.626 137.888 149.229 137.792 C 150.001 137.669 150.777 137.563 151.553 137.464 C 152.384 137.36 153.216 137.265 154.05 137.18 C 154.747 137.109 155.447 137.062 156.145 136.996 C 156.669 136.946 157.193 136.887 157.716 136.824 C 158.322 136.751 158.927 136.675 159.531 136.591 C 160.017 136.523 160.5 136.432 160.987 136.372 C 161.23 136.343 161.479 136.363 161.725 136.358 C 162.503 136.339 163.281 136.327 164.059 136.295 C 164.346 136.283 164.702 136.308 164.901 136.16 C 165.233 135.913 165.637 136.057 165.973 135.851 C 166.173 135.727 166.5 135.789 166.77 135.774 C 167.523 135.733 168.276 135.669 169.03 135.664 C 169.785 135.658 170.542 135.713 171.298 135.742 C 171.313 135.775 171.328 135.809 171.343 135.842 C 170.945 136.177 170.562 136.529 170.146 136.842 C 169.117 137.616 168.059 138.355 167.041 139.141 C 166.593 139.488 166.199 139.902 165.806 140.308 C 164.897 141.247 163.898 142.092 162.765 142.758 C 161.736 143.363 160.608 143.801 159.386 143.898 C 158.695 143.953 157.995 143.904 157.3 143.918 C 157.106 143.922 156.91 143.976 156.719 144.023 C 156.411 144.099 156.106 144.188 155.791 144.29 Z" style=""/>
  <path fill="#3DA4AD" opacity="1.000000" stroke="none" d="M 161.421 144.38 C 161.87 144.437 162.291 144.497 162.727 144.335 C 162.948 144.254 163.222 144.306 163.509 144.269 C 163.659 144.188 163.77 144.092 163.885 144.089 C 164.855 144.058 165.826 144.029 166.797 144.028 C 167.575 144.026 168.353 144.082 169.131 144.078 C 171.687 144.067 174.243 144.041 176.799 144.02 C 177.082 144.018 177.367 144.016 177.669 144.021 C 177.989 144.122 178.293 144.21 178.591 144.314 C 178.67 144.342 178.768 144.408 178.792 144.478 C 178.977 145.01 179.119 145.556 179.327 146.079 C 179.552 146.646 179.89 147.157 180.479 147.445 C 181.403 147.896 182.389 147.863 183.352 147.647 C 183.818 147.543 184.209 147.217 184.385 146.735 C 184.577 146.209 184.803 145.693 184.97 145.16 C 185.212 144.382 185.538 143.689 186.466 143.435 C 186.68 143.412 186.87 143.402 187.056 143.372 C 187.25 143.341 187.441 143.291 187.663 143.251 C 187.865 143.257 188.039 143.249 188.21 143.263 C 188.539 143.289 188.853 143.347 188.939 143.729 C 188.804 144.533 188.241 145.08 187.618 145.526 C 186.681 146.197 185.709 146.837 184.69 147.386 C 183.438 148.061 182.035 148.372 180.633 148.634 C 179.24 148.894 177.838 149.11 176.439 149.343 C 176.169 149.388 175.891 149.471 175.626 149.446 C 175.351 149.42 174.448 149.306 174.152 149.336 C 173.555 149.397 173 149.293 172.539 148.895 C 172.386 148.764 172.287 148.741 172.163 148.938 C 172.117 149.012 171.949 149.045 171.836 149.045 C 171.586 149.045 171.357 149.027 171.272 149.34 C 171.251 149.418 171.084 149.51 170.985 149.508 C 170.481 149.502 169.976 149.478 169.472 149.44 C 168.971 149.401 168.472 149.326 167.971 149.286 C 166.926 149.203 165.875 149.17 164.836 149.045 C 163.528 148.889 162.222 148.698 160.93 148.451 C 160.094 148.292 159.284 148.006 158.437 147.771 C 158.515 147.523 158.573 147.339 158.657 147.124 C 158.929 146.562 159.294 146.111 159.724 145.711 C 160.021 145.435 160.348 145.19 160.661 144.93 C 160.762 144.846 160.86 144.759 160.959 144.673 C 161.106 144.578 161.254 144.482 161.421 144.38 M 168.905 147.725 C 169.04 148.09 169.383 148.07 169.716 148.155 C 169.682 147.833 169.759 147.486 169.384 147.397 C 169.258 147.366 169.067 147.58 168.905 147.725 Z" style=""/>
  <path fill="#D7AF2F" opacity="1.000000" stroke="none" d="M 189.354 142.563 C 189.618 142.486 189.908 142.451 190.143 142.323 C 190.646 142.049 191.134 141.746 191.604 141.422 C 192.33 140.922 192.718 140.19 193.05 139.417 C 193.238 138.979 193.501 138.571 193.732 138.15 C 194.112 137.455 194.512 136.768 194.867 136.06 C 195.057 135.683 195.144 135.258 195.325 134.875 C 195.627 134.238 195.747 133.573 195.697 132.883 C 195.68 132.643 195.572 132.406 195.488 132.173 C 195.472 132.13 195.373 132.114 195.289 132.084 C 195.486 132.007 195.703 131.888 195.93 131.865 C 196.691 131.79 197.455 131.749 198.237 131.692 C 198.27 132.081 198.294 132.415 198.328 132.748 C 198.355 133.016 198.41 133.282 198.424 133.55 C 198.435 133.758 198.387 133.97 198.39 134.179 C 198.405 135.189 198.457 136.2 198.435 137.209 C 198.425 137.642 198.259 138.069 198.182 138.502 C 198.132 138.785 198.099 139.073 198.086 139.36 C 198.055 139.989 198.089 140.625 198.006 141.246 C 197.943 141.714 197.739 142.164 197.594 142.644 C 197.494 142.611 197.403 142.518 197.302 142.507 C 197.081 142.483 196.856 142.492 196.633 142.503 C 196.51 142.509 196.337 142.425 196.291 142.639 C 196.286 142.661 196.183 142.67 196.124 142.674 C 195.375 142.725 194.625 142.773 193.849 142.824 C 193.842 143.009 193.706 143.032 193.513 143.03 C 192.051 143.023 190.59 143.027 189.098 143.025 C 189.067 143.023 189.058 143.016 189.06 142.994 C 189.132 142.892 189.208 142.815 189.272 142.731 C 189.309 142.682 189.327 142.619 189.354 142.563 Z" style=""/>
  <path fill="#F3D723" opacity="1.000000" stroke="none" d="M 176.678 132.442 C 176.372 132.572 176.101 132.598 175.86 132.364 C 175.694 132.203 175.617 132.005 175.767 131.814 C 176.039 131.467 176.339 131.139 176.633 130.807 C 176.683 130.751 176.756 130.71 176.825 130.672 C 177.036 130.552 177.254 130.455 177.481 130.639 C 177.713 130.826 177.766 131.076 177.714 131.348 C 177.609 131.906 177.228 132.236 176.678 132.442 Z" style=""/>
  <path fill="#3FABDB" opacity="1.000000" stroke="none" d="M 160.932 144.669 C 160.86 144.759 160.762 144.846 160.661 144.93 C 160.348 145.19 160.021 145.435 159.724 145.711 C 159.294 146.111 158.929 146.562 158.666 147.104 C 158.604 147.1 158.552 147.063 158.516 147.075 C 158.071 147.211 157.629 147.356 157.185 147.494 C 157.143 147.507 157.092 147.491 157.027 147.481 C 157.01 147.452 157.019 147.436 157.07 147.409 C 157.415 147.29 157.727 147.187 158.122 147.055 C 157.775 147.055 157.514 147.055 157.254 147.055 C 157.362 146.923 157.45 146.767 157.583 146.663 C 157.84 146.459 158.114 146.273 158.394 146.099 C 158.614 145.962 158.873 145.877 159.078 145.724 C 159.227 145.612 159.315 145.425 159.454 145.248 C 159.609 145.08 159.74 144.935 159.87 144.792 C 160.215 144.749 160.56 144.707 160.932 144.669 Z" style=""/>
  <path fill="#F4F4F4" opacity="1.000000" stroke="none" d="M 197 146.014 C 197.088 145.353 197.172 144.718 197.256 144.083 C 197.297 144.083 197.338 144.083 197.378 144.083 C 197.407 144.188 197.458 144.293 197.462 144.399 C 197.521 146.026 197.323 147.632 197.019 149.229 C 196.749 148.166 196.898 147.103 197 146.014 Z" style=""/>
  <path fill="#D7AE2E" opacity="1.000000" stroke="none" d="M 196.339 144.775 C 196.317 144.601 196.285 144.442 196.498 144.324 C 196.588 144.274 196.567 144.057 196.626 143.929 C 196.655 143.867 196.752 143.833 196.843 143.788 C 196.869 143.991 196.869 144.192 196.869 144.394 C 196.841 144.384 196.813 144.375 196.785 144.366 C 196.726 144.455 196.678 144.554 196.604 144.629 C 196.54 144.693 196.445 144.73 196.339 144.775 Z" style=""/>
  <path fill="#026E9E" opacity="1.000000" stroke="none" d="M 159.842 144.787 C 159.74 144.935 159.609 145.08 159.459 145.233 C 159.34 145.106 159.239 144.97 159.134 144.815 C 159.357 144.793 159.585 144.788 159.842 144.787 Z" style=""/>
  <path fill="#8C8C8C" opacity="1.000000" stroke="none" d="M 170.04 132.555 C 169.526 132.555 169.041 132.555 168.556 132.555 C 168.556 132.541 168.556 132.526 168.556 132.511 C 169.242 132.511 169.927 132.511 170.611 132.511 C 170.612 132.526 170.612 132.541 170.612 132.555 C 170.431 132.555 170.251 132.555 170.04 132.555 Z" style=""/>
  <path fill="#393939" opacity="1.000000" stroke="none" d="M 174.367 126.065 C 174.556 126.064 174.715 126.064 174.874 126.064 C 174.874 126.078 174.874 126.092 174.874 126.106 C 174.193 126.106 173.513 126.106 172.832 126.106 C 172.832 126.092 172.832 126.079 172.832 126.065 C 173.334 126.065 173.836 126.065 174.367 126.065 Z" style=""/>
  <path fill="#F5D91F" opacity="1.000000" stroke="none" d="M 180.246 132.454 C 180.41 132.443 180.595 132.442 180.807 132.443 C 180.645 132.452 180.456 132.457 180.246 132.454 Z" style=""/>
  <path fill="#F5D91F" opacity="1.000000" stroke="none" d="M 185.444 126.553 C 185.46 126.669 185.462 126.806 185.461 126.95 C 185.449 126.829 185.44 126.701 185.444 126.553 Z" style=""/>
  <path fill="#F5D91F" opacity="1.000000" stroke="none" d="M 183.736 125.697 C 183.632 125.709 183.51 125.71 183.361 125.709 C 183.463 125.7 183.59 125.693 183.736 125.697 Z" style=""/>
  <path fill="#F5D91F" opacity="1.000000" stroke="none" d="M 187.396 125.635 C 187.306 125.651 187.202 125.651 187.073 125.649 C 187.159 125.637 187.272 125.628 187.396 125.635 Z" style=""/>
  <path fill="#F5D91F" opacity="1.000000" stroke="none" d="M 187.082 132.137 C 187.124 132.119 187.186 132.104 187.268 132.091 C 187.226 132.108 187.164 132.125 187.082 132.137 Z" style=""/>
  <path fill="#F5D91F" opacity="1.000000" stroke="none" d="M 187.507 132.079 C 187.535 132.061 187.581 132.047 187.647 132.036 C 187.619 132.054 187.572 132.069 187.507 132.079 Z" style=""/>
  <path fill="#F5D91F" opacity="1.000000" stroke="none" d="M 186.716 125.661 C 186.689 125.68 186.645 125.695 186.581 125.707 C 186.608 125.689 186.653 125.674 186.716 125.661 Z" style=""/>
  <path fill="#F5D91F" opacity="1.000000" stroke="none" d="M 191.095 131.439 C 191.121 131.42 191.166 131.403 191.231 131.388 C 191.204 131.407 191.159 131.425 191.095 131.439 Z" style=""/>
  <path fill="#F5D91F" opacity="1.000000" stroke="none" d="M 190.547 131.556 C 190.574 131.537 190.619 131.521 190.684 131.506 C 190.657 131.525 190.611 131.542 190.547 131.556 Z" style=""/>
  <path fill="#F5D91F" opacity="1.000000" stroke="none" d="M 189.03 131.845 C 189.056 131.827 189.099 131.812 189.161 131.799 C 189.136 131.816 189.091 131.832 189.03 131.845 Z" style=""/>
  <path fill="#F5D91F" opacity="1.000000" stroke="none" d="M 187.933 132.02 C 187.96 132.003 188.005 131.988 188.068 131.976 C 188.042 131.994 187.996 132.009 187.933 132.02 Z" style=""/>
  <path fill="#F5D91F" opacity="1.000000" stroke="none" d="M 183.857 125.703 C 183.856 125.711 183.839 125.711 183.831 125.709 C 183.822 125.707 183.836 125.69 183.836 125.69 C 183.836 125.69 183.857 125.696 183.857 125.703 Z" style=""/>
  <path fill="#FBFBFB" opacity="1.000000" stroke="none" d="M 194.972 127.436 C 194.896 127.439 194.82 127.421 194.748 127.394 C 194.292 127.226 193.845 127.023 193.376 126.902 C 193.187 126.853 192.865 126.919 192.755 127.05 C 192.65 127.174 192.701 127.463 192.758 127.659 C 192.827 127.891 192.943 128.125 193.097 128.314 C 193.29 128.55 193.221 128.709 193.078 128.937 C 192.667 129.585 192.049 129.967 191.355 130.257 C 190.62 130.565 189.837 130.679 189.047 130.77 C 188.649 130.816 188.256 130.901 187.86 130.961 C 187.326 131.042 186.79 131.106 186.257 131.195 C 185.523 131.317 184.796 131.496 184.057 131.576 C 183.342 131.654 182.616 131.642 181.895 131.66 C 181.82 131.661 181.744 131.598 181.669 131.565 C 181.674 131.532 181.679 131.499 181.684 131.466 C 182.368 131.361 183.052 131.256 183.735 131.15 C 184.274 131.065 184.809 130.963 185.35 130.899 C 185.822 130.844 186.301 130.843 186.774 130.796 C 187.041 130.77 187.301 130.687 187.568 130.652 C 187.884 130.61 188.208 130.615 188.521 130.559 C 188.919 130.488 189.316 130.399 189.7 130.278 C 190.222 130.114 190.767 129.971 191.236 129.709 C 191.741 129.426 192.182 129.019 192.301 128.419 C 192.358 128.13 192.383 127.83 192.373 127.537 C 192.366 127.296 192.152 127.175 191.931 127.127 C 191.34 126.997 190.753 127.072 190.169 127.192 C 189.796 127.269 189.42 127.336 189.046 127.411 C 188.939 127.432 188.835 127.466 188.729 127.494 C 188.719 127.461 188.708 127.428 188.697 127.394 C 189.057 127.242 189.414 127.083 189.778 126.941 C 190.008 126.851 190.022 126.523 189.783 126.307 C 189.5 126.052 189.151 125.914 188.778 125.828 C 188.722 125.815 188.667 125.797 188.61 125.737 C 188.658 125.729 188.706 125.711 188.753 125.714 C 189.547 125.764 190.315 125.59 191.068 125.396 C 191.444 125.3 191.801 125.072 192.114 124.839 C 192.478 124.569 192.437 124.117 192.076 123.77 C 191.941 123.641 191.796 123.521 191.693 123.43 C 192.08 123.226 192.436 123.039 192.848 122.822 C 192.954 123.266 193.064 123.679 193.143 124.098 C 193.16 124.187 193.094 124.32 193.021 124.391 C 192.67 124.736 192.504 125.12 192.685 125.595 C 192.833 125.984 193.134 126.27 193.499 126.442 C 193.952 126.653 194.448 126.779 194.947 126.944 C 194.971 127.101 194.972 127.256 194.972 127.436 Z" style=""/>
  <path fill="#FCFCFC" opacity="1.000000" stroke="none" d="M 191.724 114.204 C 191.307 113.731 190.804 113.338 190.596 112.646 C 190.785 112.701 190.885 112.715 190.969 112.756 C 191.692 113.114 192.316 113.587 192.743 114.261 C 192.842 114.416 192.877 114.623 192.893 114.809 C 192.906 114.962 192.817 115.087 192.634 114.944 C 192.332 114.707 192.037 114.461 191.724 114.204 Z" style=""/>
  <path fill="#FCFDFD" opacity="1.000000" stroke="none" d="M 157.367 163.741 C 157.446 163.677 157.536 163.622 157.603 163.548 C 157.755 163.382 157.895 163.207 158.054 163.02 C 158.087 162.999 158.098 162.986 158.101 162.967 C 158.101 162.967 158.095 162.968 158.12 162.973 C 158.27 162.941 158.396 162.907 158.52 162.866 C 159.81 162.436 161.085 161.955 162.449 161.773 C 163.708 161.604 164.921 161.671 165.986 162.448 C 166.049 162.494 166.126 162.524 166.2 162.556 C 168.93 163.761 170.105 167.259 168.617 169.767 C 167.821 171.108 166.485 171.777 165.07 172.32 C 164.674 172.472 164.223 172.54 163.793 172.555 C 161.335 172.647 159.355 171.709 157.844 169.876 C 156.918 168.753 156.503 167.454 156.768 166.021 C 156.867 165.484 157.123 164.973 157.279 164.443 C 157.345 164.219 157.34 163.975 157.367 163.741 M 161.813 167.388 C 161.656 166.512 161.208 165.812 160.355 165.443 C 160.049 165.311 159.627 165.292 159.297 165.371 C 158.226 165.627 157.557 166.335 157.253 167.333 C 156.997 168.173 157.399 168.822 158.288 169.041 C 158.666 169.134 159.069 169.132 159.46 169.179 C 160.61 169.316 161.672 168.531 161.813 167.388 Z" style=""/>
  <path fill="#020202" opacity="1.000000" stroke="none" d="M 167.524 173.012 C 168.221 172.429 168.951 171.905 169.567 171.278 C 170.02 170.816 170.53 170.696 171.121 170.694 C 172.869 170.684 174.359 171.317 175.643 172.421 C 176.584 173.23 177.293 174.194 177.668 175.367 C 177.891 176.065 177.861 176.149 177.205 176.532 C 176.807 176.764 176.405 176.991 176.029 177.253 C 175.05 177.936 174.888 178.564 175.135 179.588 C 175.308 180.306 174.69 181.101 173.939 181.025 C 173.346 180.966 172.764 180.794 172.18 180.663 C 171.646 180.543 171.131 180.528 170.658 180.846 C 170.6 180.886 170.542 180.928 170.497 180.98 C 170.184 181.344 170.063 181.32 169.647 181.09 C 168.831 180.639 168.715 179.877 168.586 179.105 C 168.487 178.508 168.429 177.9 168.275 177.317 C 168.086 176.602 167.55 176.222 166.789 176.125 C 166.513 176.09 166.359 175.98 166.309 175.655 C 166.17 174.763 166.554 174.073 167.111 173.428 C 167.233 173.286 167.376 173.159 167.524 173.012 M 173.844 176.078 C 174.033 176.11 174.22 176.158 174.41 176.171 C 175.128 176.22 175.844 176.256 176.53 175.969 C 176.769 175.869 176.934 175.77 176.82 175.479 C 176.768 175.347 176.785 175.192 176.75 175.052 C 176.553 174.263 176.166 173.619 175.273 173.42 C 175.028 173.366 174.763 173.386 174.507 173.384 C 174.138 173.38 173.764 173.356 173.399 173.395 C 172.416 173.501 171.439 173.657 170.456 173.751 C 169.869 173.807 169.277 173.741 168.734 173.501 C 168.478 173.387 168.257 173.415 168.016 173.495 C 167.1 173.798 166.619 174.536 166.882 175.273 C 167.087 175.847 167.565 176.136 168.138 176.316 C 168.375 176.391 168.569 176.367 168.789 176.231 C 169.557 175.756 170.414 175.599 171.311 175.705 C 172.141 175.804 172.964 175.949 173.844 176.078 M 173.902 180.345 C 174.307 180.131 174.605 179.83 174.758 179.402 C 175.063 178.549 174.649 177.302 173.881 176.787 C 173.589 176.592 173.269 176.493 172.946 176.694 C 172.601 176.908 172.366 177.215 172.366 177.625 C 172.366 178.004 172.385 178.386 172.436 178.761 C 172.49 179.153 172.545 179.556 172.687 179.923 C 172.875 180.408 173.382 180.568 173.902 180.345 M 169.932 177.054 C 169.622 177.542 169.569 178.095 169.5 178.642 C 169.451 179.026 169.388 179.411 169.378 179.796 C 169.371 180.087 169.559 180.269 169.844 180.271 C 170.501 180.277 171.13 180.131 171.453 179.369 C 171.776 178.607 171.696 177.845 171.365 177.106 C 171.233 176.812 171.064 176.506 170.676 176.477 C 170.286 176.449 170.134 176.76 169.932 177.054 Z" style=""/>
  <path fill="#030303" opacity="1.000000" stroke="none" d="M 180.224 172.791 C 179.396 172.829 178.619 172.671 177.883 172.421 C 176.897 172.084 175.953 171.645 175.126 171.002 C 174.283 170.346 173.545 169.607 173.13 168.634 C 172.924 168.153 172.764 167.636 172.691 167.121 C 172.36 164.782 173.499 163.06 175.281 161.631 C 175.936 161.104 176.666 160.681 177.474 160.413 C 177.876 160.279 178.31 160.204 178.735 160.174 C 179.945 160.087 181.141 160.172 182.298 160.569 C 184.404 161.292 185.916 162.594 186.679 164.648 C 186.955 165.391 187.158 166.139 187.113 166.936 C 187.067 167.728 186.859 168.478 186.468 169.174 C 185.455 170.977 183.874 172.094 181.829 172.606 C 181.322 172.733 180.78 172.733 180.224 172.791 M 183.551 171.053 C 185.552 169.962 186.622 167.804 186.206 165.723 C 185.981 164.599 185.308 163.708 184.558 162.876 C 184.206 162.487 183.755 162.154 183.291 161.888 C 181.906 161.098 180.386 160.932 178.822 161.175 C 177.263 161.417 175.899 162.049 174.889 163.251 C 173.392 165.031 173.362 167.541 174.841 169.488 C 176.064 171.101 177.693 171.934 179.824 171.691 C 180.035 171.667 180.251 171.641 180.461 171.661 C 181.543 171.767 182.559 171.573 183.551 171.053 Z" style=""/>
  <path fill="#030303" opacity="1.000000" stroke="none" d="M 157.344 163.738 C 157.34 163.975 157.345 164.219 157.279 164.443 C 157.123 164.973 156.867 165.484 156.768 166.021 C 156.503 167.454 156.918 168.753 157.844 169.876 C 159.355 171.709 161.335 172.647 163.793 172.555 C 164.223 172.54 164.674 172.472 165.07 172.32 C 166.485 171.777 167.821 171.108 168.617 169.767 C 170.105 167.259 168.93 163.761 166.2 162.556 C 166.126 162.524 166.049 162.494 165.986 162.448 C 164.921 161.671 163.708 161.604 162.449 161.773 C 161.085 161.955 159.81 162.436 158.52 162.866 C 158.396 162.907 158.27 162.941 158.12 162.976 C 158.393 162.418 158.89 162.053 159.417 161.726 C 160.189 161.247 161.038 160.999 161.958 160.916 C 164.155 160.72 166.14 161.235 167.873 162.535 C 169.017 163.393 169.837 164.493 170.091 165.897 C 170.33 167.22 170.103 168.495 169.475 169.692 C 168.491 171.571 166.891 172.703 164.765 173.133 C 163.997 173.288 163.21 173.424 162.413 173.265 C 161.852 173.153 161.275 173.099 160.731 172.939 C 159.878 172.688 159.115 172.259 158.42 171.712 C 157.343 170.864 156.557 169.835 156.185 168.534 C 155.951 167.715 155.886 166.888 156.073 166.051 C 156.164 165.639 156.184 165.201 156.346 164.818 C 156.536 164.371 156.776 163.912 157.344 163.738 Z" style=""/>
  <path fill="#040404" opacity="1.000000" stroke="none" d="M 166.999 183.686 C 167.052 183.716 167.083 183.74 167.113 183.765 C 167.112 183.794 167.111 183.824 167.11 183.853 C 166.368 183.853 165.62 183.909 164.885 183.84 C 163.783 183.736 162.687 183.559 161.594 183.385 C 160.592 183.227 159.599 183.011 158.596 182.859 C 157.86 182.748 157.113 182.703 156.373 182.622 C 156.26 182.61 156.061 182.573 156.058 182.538 C 156.047 182.384 156.039 182.146 156.132 182.088 C 156.326 181.968 156.604 181.851 156.813 181.893 C 157.641 182.059 158.456 182.286 159.276 182.492 C 160.097 182.699 160.902 182.963 161.77 182.988 C 162.17 182.999 162.562 183.18 162.964 183.238 C 163.688 183.344 164.417 183.419 165.144 183.499 C 165.754 183.566 166.365 183.621 166.999 183.686 Z" style=""/>
  <path fill="#2B8FA8" opacity="1.000000" stroke="none" d="M 157.244 147.073 C 157.514 147.055 157.775 147.055 158.122 147.055 C 157.727 147.187 157.415 147.29 157.083 147.403 C 157.12 147.305 157.176 147.198 157.244 147.073 Z" style=""/>
  <path fill="#030303" opacity="1.000000" stroke="none" d="M 158.096 162.973 C 158.098 162.986 158.087 162.999 158.058 162.997 C 158.062 162.993 158.077 162.989 158.096 162.973 Z" style=""/>
  <path fill="#40ACDB" opacity="1.000000" stroke="none" d="M 188.963 143.723 C 188.853 143.347 188.539 143.289 188.21 143.263 C 188.039 143.249 187.865 143.257 187.68 143.233 C 188.131 143.146 188.595 143.081 189.058 143.016 C 189.058 143.016 189.067 143.023 189.07 143.028 C 189.044 143.261 189.016 143.49 188.963 143.723 Z" style=""/>
  <path fill="#FBFCFB" opacity="1.000000" stroke="none" d="M 189.06 142.994 C 188.595 143.081 188.131 143.146 187.65 143.229 C 187.441 143.291 187.25 143.341 187.056 143.372 C 186.87 143.402 186.68 143.412 186.438 143.434 C 184.324 143.436 182.264 143.433 180.204 143.442 C 180.085 143.442 179.967 143.53 179.849 143.577 C 179.858 143.623 179.868 143.668 179.877 143.714 C 179.145 143.748 178.414 143.784 177.678 143.819 C 177.67 143.88 177.66 143.947 177.651 144.014 C 177.367 144.016 177.082 144.018 176.799 144.02 C 174.243 144.041 171.687 144.067 169.131 144.078 C 168.353 144.082 167.575 144.026 166.797 144.028 C 165.826 144.029 164.855 144.058 163.885 144.089 C 163.77 144.092 163.659 144.188 163.525 144.251 C 163.455 144.252 163.4 144.253 163.358 144.23 C 163.288 144.193 163.226 144.14 163.161 144.094 C 163.229 144.068 163.296 144.029 163.367 144.02 C 164.268 143.909 165.074 143.562 165.823 143.089 C 166.297 142.789 166.777 142.488 167.206 142.134 C 167.641 141.774 168.017 141.348 168.418 140.951 C 168.71 140.663 169.012 140.381 169.293 140.082 C 169.482 139.881 169.638 139.652 169.816 139.44 C 169.952 139.278 170.092 139.119 170.239 138.965 C 170.446 138.748 170.665 138.54 170.871 138.322 C 171.322 137.847 171.761 137.362 172.217 136.892 C 172.521 136.58 172.846 136.286 173.167 135.989 C 173.185 135.972 173.254 136.005 173.37 136.03 C 173.061 136.493 172.784 136.943 172.469 137.367 C 172.114 137.845 171.725 138.301 171.348 138.764 C 171.195 138.952 171.047 139.145 170.875 139.315 C 170.011 140.162 169.136 140.997 168.275 141.846 C 167.835 142.279 167.367 142.694 167.073 143.244 C 167.068 143.252 167.057 143.257 167.052 143.266 C 166.97 143.441 166.823 143.653 167.025 143.791 C 167.186 143.901 167.435 143.952 167.636 143.935 C 167.922 143.912 168.198 143.755 168.483 143.74 C 168.98 143.714 169.343 143.432 169.665 143.155 C 170.013 142.857 170.284 142.457 170.522 142.065 C 170.981 141.309 171.386 140.524 171.828 139.759 C 172.138 139.223 172.421 138.66 172.813 138.184 C 173.1 137.834 173.407 137.423 173.905 137.31 C 174.176 137.249 174.478 137.269 174.76 137.304 C 174.987 137.332 175.039 137.529 174.965 137.712 C 174.712 138.336 174.432 138.949 174.181 139.574 C 173.87 140.351 173.565 141.131 173.283 141.917 C 173.181 142.203 173.118 142.512 173.1 142.813 C 173.074 143.263 173.312 143.401 173.735 143.224 C 173.873 143.166 174.011 143.109 174.15 143.056 C 174.523 142.912 174.774 142.7 174.831 142.274 C 174.892 141.827 175.046 141.391 175.15 140.948 C 175.262 140.474 175.341 139.991 175.473 139.522 C 175.701 138.711 175.937 137.899 176.213 137.101 C 176.463 136.377 176.77 135.671 177.052 134.957 C 177.089 134.956 177.126 134.954 177.163 134.953 C 177.213 135.135 177.298 135.316 177.305 135.5 C 177.351 136.578 177.043 137.584 176.647 138.583 C 176.333 139.377 176.064 140.193 175.857 141.018 C 175.652 141.836 175.843 142.624 176.533 143.173 C 177.052 143.586 177.913 143.797 178.555 143.239 C 178.761 143.061 178.888 142.804 179.069 142.596 C 179.159 142.491 179.288 142.416 179.399 142.328 C 179.473 142.435 179.564 142.535 179.616 142.651 C 179.692 142.822 179.725 143.012 179.806 143.181 C 179.844 143.259 179.955 143.364 180.026 143.359 C 180.696 143.313 181.368 143.271 182.032 143.175 C 182.358 143.127 182.726 143.077 182.922 142.739 C 182.945 142.7 183.018 142.687 183.068 142.664 C 183.15 142.624 183.296 142.594 183.302 142.547 C 183.315 142.448 183.289 142.289 183.218 142.245 C 183.023 142.124 182.797 142.05 182.582 141.957 C 182.76 141.712 183.057 141.602 183.324 141.67 C 183.919 141.822 183.989 142.302 183.937 142.788 C 184.244 142.85 184.527 142.935 184.816 142.958 C 185.342 143 185.873 143.037 186.4 143.017 C 187.103 142.99 187.806 142.924 188.503 142.838 C 188.783 142.803 189.05 142.671 189.338 142.573 C 189.327 142.619 189.309 142.682 189.272 142.731 C 189.208 142.815 189.132 142.892 189.06 142.994 M 172.132 140.205 C 171.925 140.482 171.696 140.745 171.516 141.037 C 171.169 141.605 170.817 142.174 170.532 142.771 C 170.374 143.102 170.463 143.538 170.898 143.621 C 171.054 143.65 171.263 143.55 171.413 143.457 C 171.761 143.245 172.101 143.028 172.315 142.657 C 172.621 142.126 173.028 141.643 173.291 141.095 C 173.535 140.587 173.674 140.027 173.805 139.478 C 173.873 139.193 173.84 138.879 173.815 138.581 C 173.806 138.471 173.688 138.369 173.611 138.25 C 173.103 138.925 172.632 139.549 172.132 140.205 Z" style=""/>
  <path fill="#FAFBFB" opacity="1.000000" stroke="none" d="M 188.935 140.219 C 188.153 140.004 187.373 139.847 186.648 139.562 C 185.184 138.984 183.926 138.08 182.771 137.055 C 182.178 136.53 181.64 135.946 181.064 135.376 C 181.288 135.194 181.504 135.207 181.722 135.313 C 182.44 135.66 183.15 136.023 183.876 136.355 C 184.306 136.552 184.758 136.688 185.226 136.806 C 185.61 136.902 185.923 136.797 186.271 136.779 C 186.568 136.763 186.895 136.841 187.17 136.959 C 187.697 137.186 188.207 137.455 188.705 137.738 C 189.026 137.921 189.312 138.159 189.614 138.373 C 189.604 138.404 189.595 138.434 189.586 138.465 C 189.461 138.457 189.323 138.477 189.211 138.435 C 188.531 138.178 187.863 137.89 187.179 137.643 C 186.363 137.349 185.542 137.06 184.653 137.051 C 184.523 137.05 184.394 137.051 184.244 137.051 C 184.278 137.352 184.397 137.513 184.664 137.641 C 185.023 137.814 185.324 138.095 185.677 138.284 C 186.367 138.656 187.054 139.041 187.834 139.235 C 188.304 139.353 188.761 139.527 189.236 139.62 C 189.894 139.75 190.553 139.703 191.197 139.502 C 191.224 139.493 191.275 139.514 191.283 139.503 C 191.378 139.357 191.567 139.322 191.625 139.435 C 191.682 139.546 191.641 139.797 191.547 139.869 C 191.321 140.04 191.044 140.234 190.776 140.253 C 190.175 140.295 189.567 140.236 188.935 140.219 Z" style=""/>
  <path fill="#F9FAFA" opacity="1.000000" stroke="none" d="M 194.012 135.433 C 193.723 136.007 193.437 136.556 192.978 137 C 192.927 137.05 192.862 137.088 192.748 137.094 C 192.931 136.66 193.106 136.223 193.297 135.792 C 193.646 135.003 193.669 134.256 193.035 133.575 C 192.957 133.491 192.902 133.386 192.821 133.269 C 193.228 133.118 193.646 132.996 194.059 133.186 C 194.207 133.255 194.354 133.469 194.371 133.629 C 194.44 134.25 194.294 134.846 194.012 135.433 Z" style=""/>
  <path fill="#FAFBFA" opacity="1.000000" stroke="none" d="M 179.214 136.448 C 179.136 136.197 179.05 135.968 179.015 135.733 C 179 135.632 179.092 135.517 179.136 135.409 C 179.235 135.451 179.366 135.467 179.426 135.539 C 179.75 135.922 180.089 136.3 180.359 136.718 C 180.589 137.075 180.752 137.477 180.91 137.872 C 180.983 138.056 180.974 138.27 181.014 138.552 C 180.067 138.052 179.562 137.327 179.214 136.448 Z" style=""/>
  <path fill="#FBFCFC" opacity="1.000000" stroke="none" d="M 186.052 136.338 C 185.86 136.262 185.691 136.196 185.5 136.121 C 186.219 135.437 187.52 135.562 187.961 136.329 C 187.329 136.491 186.702 136.412 186.052 136.338 Z" style=""/>
  <path fill="#FAFBFB" opacity="1.000000" stroke="none" d="M 191.973 137.63 C 191.411 137.41 190.992 137.053 190.683 136.58 C 190.6 136.451 190.526 136.307 190.492 136.161 C 190.453 135.995 190.503 135.854 190.733 135.949 C 190.856 136 190.993 136.048 191.084 136.136 C 191.393 136.432 191.706 136.729 191.973 137.06 C 192.093 137.209 192.169 137.436 191.973 137.63 Z" style=""/>
  <path fill="#FAFBFB" opacity="1.000000" stroke="none" d="M 191.763 121.226 C 191.42 121.542 191.119 121.879 190.754 122.131 C 189.983 122.664 189.178 123.152 188.346 123.684 C 188.259 123.423 188.38 123.234 188.522 123.075 C 188.786 122.778 189.062 122.488 189.357 122.219 C 189.768 121.846 190.213 121.508 190.62 121.132 C 190.921 120.853 191.19 120.542 191.462 120.235 C 191.657 120.016 191.841 119.786 192.013 119.55 C 192.107 119.42 192.166 119.266 192.247 119.109 C 192.701 119.88 192.283 120.776 191.763 121.226 Z" style=""/>
  <path fill="#F8F9F8" opacity="1.000000" stroke="none" d="M 185.892 119.75 C 185.97 119.565 186.005 119.376 186.093 119.213 C 186.554 118.364 187.028 117.522 187.502 116.68 C 187.537 116.618 187.616 116.578 187.738 116.472 C 187.749 117.047 187.656 117.541 187.393 117.969 C 186.915 118.75 186.383 119.501 185.868 120.261 C 185.854 120.282 185.778 120.264 185.692 120.264 C 185.759 120.077 185.817 119.918 185.892 119.75 Z" style=""/>
  <path fill="#FAFBFB" opacity="1.000000" stroke="none" d="M 189.535 118.387 C 189.799 117.579 190.05 116.786 190.301 115.992 C 191.049 116.26 191.226 116.961 190.708 117.528 C 190.525 117.728 190.344 117.93 190.148 118.117 C 189.96 118.297 189.753 118.459 189.521 118.658 C 189.521 118.551 189.521 118.476 189.535 118.387 Z" style=""/>
  <path fill="#F7F8F8" opacity="1.000000" stroke="none" d="M 184.06 129.273 C 183.679 129.48 183.342 129.75 182.84 129.67 C 183.277 129.163 184.558 128.581 185.533 128.28 C 185.549 128.303 185.564 128.325 185.58 128.347 C 185.08 128.653 184.581 128.959 184.06 129.273 Z" style=""/>
  <path fill="#F9FAFA" opacity="1.000000" stroke="none" d="M 187.162 127.759 C 187.283 127.759 187.378 127.759 187.474 127.759 C 187.483 127.791 187.492 127.823 187.501 127.854 C 187.369 127.919 187.244 128 187.105 128.043 C 186.916 128.1 186.718 128.146 186.522 128.159 C 186.438 128.163 186.348 128.07 186.261 128.021 C 186.334 127.97 186.4 127.891 186.482 127.872 C 186.696 127.821 186.918 127.795 187.162 127.759 Z" style=""/>
  <path fill="#FAFBFB" opacity="1.000000" stroke="none" d="M 185.86 123.928 C 185.856 123.825 185.839 123.693 185.895 123.648 C 186.059 123.52 186.253 123.426 186.453 123.309 C 186.564 123.547 186.457 123.726 186.307 123.851 C 186.204 123.938 186.065 124.114 185.86 123.928 Z" style=""/>
  <path fill="#40ACDC" opacity="1.000000" stroke="none" d="M 177.669 144.021 C 177.66 143.947 177.67 143.88 177.678 143.819 C 178.414 143.784 179.145 143.748 179.877 143.714 C 179.868 143.668 179.858 143.623 179.849 143.577 C 179.967 143.53 180.085 143.442 180.204 143.442 C 182.264 143.433 184.324 143.436 186.412 143.438 C 185.538 143.689 185.212 144.382 184.97 145.16 C 184.803 145.693 184.577 146.209 184.385 146.735 C 184.209 147.217 183.818 147.543 183.352 147.647 C 182.389 147.863 181.403 147.896 180.479 147.445 C 179.89 147.157 179.552 146.646 179.327 146.079 C 179.119 145.556 178.977 145.01 178.792 144.478 C 178.768 144.408 178.67 144.342 178.591 144.314 C 178.293 144.21 177.989 144.122 177.669 144.021 M 182.23 144.118 C 182.067 144.185 181.908 144.264 181.74 144.316 C 181.617 144.353 181.47 144.394 181.354 144.364 C 180.945 144.256 180.56 144.298 180.189 144.479 C 179.921 144.61 179.717 145.026 179.819 145.271 C 179.945 145.577 180.062 145.899 180.259 146.161 C 180.554 146.551 181.005 146.772 181.498 146.806 C 181.927 146.835 182.365 146.72 182.796 146.736 C 183.839 146.775 184.553 145.608 184.079 144.739 C 183.989 144.572 183.882 144.388 183.73 144.284 C 183.285 143.977 182.778 143.977 182.23 144.118 Z" style=""/>
  <path fill="#3EABDA" opacity="1.000000" stroke="none" d="M 168.905 147.704 C 169.067 147.58 169.258 147.366 169.384 147.397 C 169.759 147.486 169.682 147.833 169.716 148.155 C 169.383 148.07 169.04 148.09 168.905 147.704 Z" style=""/>
  <path fill="#020202" opacity="1.000000" stroke="none" d="M 161.812 167.413 C 161.672 168.531 160.61 169.316 159.46 169.179 C 159.069 169.132 158.666 169.134 158.288 169.041 C 157.399 168.822 156.997 168.173 157.253 167.333 C 157.557 166.335 158.226 165.627 159.297 165.371 C 159.627 165.292 160.049 165.311 160.355 165.443 C 161.208 165.812 161.656 166.512 161.812 167.413 M 160.554 167.53 C 160.504 167.529 160.446 167.513 160.403 167.531 C 160.254 167.593 160.049 167.635 159.986 167.747 C 159.935 167.839 160.023 168.046 160.112 168.154 C 160.265 168.343 160.466 168.496 160.656 168.672 C 160.776 168.583 160.897 168.529 160.959 168.438 C 161.07 168.276 161.242 168.071 161.207 167.924 C 161.172 167.777 160.918 167.674 160.754 167.56 C 160.717 167.534 160.656 167.541 160.554 167.53 Z" style=""/>
  <path fill="#C0986A" opacity="1.000000" stroke="none" d="M 173.817 176.076 C 172.964 175.949 172.141 175.804 171.311 175.705 C 170.414 175.599 169.557 175.756 168.789 176.231 C 168.569 176.367 168.375 176.391 168.138 176.316 C 167.565 176.136 167.087 175.847 166.882 175.273 C 166.619 174.536 167.1 173.798 168.016 173.495 C 168.257 173.415 168.478 173.387 168.734 173.501 C 169.277 173.741 169.869 173.807 170.456 173.751 C 171.439 173.657 172.416 173.501 173.399 173.395 C 173.764 173.356 174.138 173.38 174.507 173.384 C 174.763 173.386 175.028 173.366 175.273 173.42 C 176.166 173.619 176.553 174.263 176.75 175.052 C 176.785 175.192 176.768 175.347 176.82 175.479 C 176.934 175.77 176.769 175.869 176.53 175.969 C 175.844 176.256 175.128 176.22 174.41 176.171 C 174.22 176.158 174.033 176.11 173.817 176.076 Z" style=""/>
  <path fill="#FBFCFC" opacity="1.000000" stroke="none" d="M 173.88 180.353 C 173.382 180.568 172.875 180.408 172.687 179.923 C 172.545 179.556 172.49 179.153 172.436 178.761 C 172.385 178.386 172.366 178.004 172.366 177.625 C 172.366 177.215 172.601 176.908 172.946 176.694 C 173.269 176.493 173.589 176.592 173.881 176.787 C 174.649 177.302 175.063 178.549 174.758 179.402 C 174.605 179.83 174.307 180.131 173.88 180.353 Z" style=""/>
  <path fill="#FBFBFB" opacity="1.000000" stroke="none" d="M 169.944 177.036 C 170.134 176.76 170.286 176.449 170.676 176.477 C 171.064 176.506 171.233 176.812 171.365 177.106 C 171.696 177.845 171.776 178.607 171.453 179.369 C 171.13 180.131 170.501 180.277 169.844 180.271 C 169.559 180.269 169.371 180.087 169.378 179.796 C 169.388 179.411 169.451 179.026 169.5 178.642 C 169.569 178.095 169.622 177.542 169.944 177.036 Z" style=""/>
  <path fill="#FCFDFD" opacity="1.000000" stroke="none" d="M 183.533 171.065 C 182.559 171.573 181.543 171.767 180.461 171.661 C 180.251 171.641 180.035 171.667 179.824 171.691 C 177.693 171.934 176.064 171.101 174.841 169.488 C 173.362 167.541 173.392 165.031 174.889 163.251 C 175.899 162.049 177.263 161.417 178.822 161.175 C 180.386 160.932 181.906 161.098 183.291 161.888 C 183.755 162.154 184.206 162.487 184.558 162.876 C 185.308 163.708 185.981 164.599 186.206 165.723 C 186.622 167.804 185.552 169.962 183.533 171.065 M 177.617 167.781 C 177.407 167.633 177.197 167.485 176.902 167.278 C 177.199 167.233 177.404 167.178 177.61 167.178 C 177.903 167.177 178.196 167.226 178.49 167.235 C 178.874 167.246 179.018 167.081 178.922 166.723 C 178.718 165.955 178.309 165.305 177.643 164.824 C 177.01 164.368 176.253 164.347 175.607 164.794 C 174.744 165.39 174.297 166.211 174.31 167.239 C 174.319 167.952 174.718 168.479 175.42 168.724 C 176.265 169.019 177.099 168.904 177.913 168.603 C 178.204 168.496 178.231 168.326 178.021 168.11 C 177.911 167.998 177.775 167.908 177.617 167.781 Z" style=""/>
  <path fill="#F5D81F" opacity="1.000000" stroke="none" d="M 172.147 140.189 C 172.632 139.549 173.103 138.925 173.611 138.25 C 173.688 138.369 173.806 138.471 173.815 138.581 C 173.84 138.879 173.873 139.193 173.805 139.478 C 173.674 140.027 173.535 140.587 173.291 141.095 C 173.028 141.643 172.621 142.126 172.315 142.657 C 172.101 143.028 171.761 143.245 171.413 143.457 C 171.263 143.55 171.054 143.65 170.898 143.621 C 170.463 143.538 170.374 143.102 170.532 142.771 C 170.817 142.174 171.169 141.605 171.516 141.037 C 171.696 140.745 171.925 140.482 172.147 140.189 Z" style=""/>
  <path fill="#3CA2A3" opacity="1.000000" stroke="none" d="M 182.247 144.108 C 182.778 143.977 183.285 143.977 183.73 144.284 C 183.882 144.388 183.989 144.572 184.079 144.739 C 184.553 145.608 183.839 146.775 182.796 146.736 C 182.365 146.72 181.927 146.835 181.498 146.806 C 181.005 146.772 180.554 146.551 180.259 146.161 C 180.062 145.899 179.945 145.577 179.819 145.271 C 179.717 145.026 179.921 144.61 180.189 144.479 C 180.56 144.298 180.945 144.256 181.354 144.364 C 181.47 144.394 181.617 144.353 181.74 144.316 C 181.908 144.264 182.067 144.185 182.247 144.108 Z" style=""/>
  <path fill="#F6F7F7" opacity="1.000000" stroke="none" d="M 160.58 167.531 C 160.656 167.541 160.717 167.534 160.754 167.56 C 160.918 167.674 161.172 167.777 161.207 167.924 C 161.242 168.071 161.07 168.276 160.959 168.438 C 160.897 168.529 160.776 168.583 160.656 168.672 C 160.466 168.496 160.265 168.343 160.112 168.154 C 160.023 168.046 159.935 167.839 159.986 167.747 C 160.049 167.635 160.254 167.593 160.403 167.531 C 160.446 167.513 160.504 167.529 160.58 167.531 Z" style=""/>
  <path fill="#020202" opacity="1.000000" stroke="none" d="M 177.634 167.794 C 177.775 167.908 177.911 167.998 178.021 168.11 C 178.231 168.326 178.204 168.496 177.913 168.603 C 177.099 168.904 176.265 169.019 175.42 168.724 C 174.718 168.479 174.319 167.952 174.31 167.239 C 174.297 166.211 174.744 165.39 175.607 164.794 C 176.253 164.347 177.01 164.368 177.643 164.824 C 178.309 165.305 178.718 165.955 178.922 166.723 C 179.018 167.081 178.874 167.246 178.49 167.235 C 178.196 167.226 177.903 167.177 177.61 167.178 C 177.404 167.178 177.199 167.233 176.902 167.278 C 177.197 167.485 177.407 167.633 177.634 167.794 Z" style=""/>
  <linearGradient id="d" x1="64.085" x2="15.529" y1="123.838" y2="5.629" gradientUnits="userSpaceOnUse" gradientTransform="matrix(0.441429, 0, 0, 0.536876, 26.983335, 136.448993)" xlink:href="#a"/>
  <linearGradient id="a">
    <stop offset="0" stop-color="#a20000"/>
    <stop offset="1" stop-color="#ff9500"/>
  </linearGradient>
  <linearGradient id="e" x1="-8.986" x2="79.154" y1="57.787" y2="57.787" gradientUnits="userSpaceOnUse" gradientTransform="matrix(0.441429, 0, 0, 0.536876, 26.983335, 136.448993)">
    <stop offset="0" stop-color="#fff"/>
    <stop offset="0.202" stop-color="#fff800"/>
    <stop offset="1" stop-color="#ff7400"/>
  </linearGradient>
  <linearGradient id="f" x1="25.4" x2="50.146" y1="61.091" y2="61.641" gradientUnits="userSpaceOnUse" gradientTransform="matrix(0.441429, 0, 0, 0.536876, 26.983335, 136.448993)">
    <stop offset="0" stop-color="#fff"/>
    <stop offset="0.022" stop-color="#fffff6"/>
    <stop offset="0.058" stop-color="#fffede"/>
    <stop offset="0.103" stop-color="#fffdb6"/>
    <stop offset="0.156" stop-color="#fffb7f"/>
    <stop offset="0.214" stop-color="#fffa39"/>
    <stop offset="0.258" stop-color="#fff800"/>
    <stop offset="1" stop-color="#ff5b00"/>
  </linearGradient>
  <linearGradient id="g" x1="-63.973" x2=".159" y1="180.002" y2="150.525" gradientTransform="matrix(0.451847, 0.022227, -0.017657, 0.560983, 64.715958, 54.177013)" gradientUnits="userSpaceOnUse" xlink:href="#b"/>
  <linearGradient id="b">
    <stop offset="0" stop-color="#fff"/>
    <stop offset="0.202" stop-color="#ececec"/>
    <stop offset="1" stop-color="#606060"/>
  </linearGradient>
  <linearGradient id="h" x1="23.368" x2="47.172" y1="8.409" y2="27.941" gradientUnits="userSpaceOnUse" gradientTransform="matrix(0.441429, 0, 0, 0.536876, 26.983335, 136.448993)" xlink:href="#b"/>
  <linearGradient id="i" x1="50.228" x2="34.358" y1="15.331" y2="20.214" gradientUnits="userSpaceOnUse" gradientTransform="matrix(0.441429, 0, 0, 0.536876, 26.983335, 136.448993)" xlink:href="#b"/>
  <linearGradient id="j" x1="27.801" x2="53.081" y1="21.77" y2="10.151" gradientUnits="userSpaceOnUse" gradientTransform="matrix(0.441429, 0, 0, 0.536876, 26.983335, 136.448993)" xlink:href="#b"/>
  <linearGradient id="x" x1="-11.981" x2="81.35" y1="91.212" y2="91.212" gradientUnits="userSpaceOnUse" gradientTransform="matrix(0.441429, 0, 0, 0.536876, 26.983335, 136.448993)">
    <stop offset="0" stop-color="#4f4f4f"/>
    <stop offset="0.309" stop-color="#fff"/>
    <stop offset="0.714" stop-color="#4a4a4a"/>
    <stop offset="1" stop-color="#0d0d0d"/>
  </linearGradient>
  <path fill="url(#d)" d="M 59.839 149.068 C 59.844 149.029 59.851 148.997 59.851 148.952 C 59.851 148.919 59.851 148.885 59.849 148.849 L 59.829 148.32 C 59.829 140.928 52.336 136.45 43.412 136.45 C 34.522 136.45 27.46 140.874 27.385 148.198 L 26.984 184.729 L 27.006 188.844 C 27.006 188.873 27.008 188.902 27.011 188.931 C 27.036 189.168 27.134 189.408 27.238 189.662 L 27.33 189.895 C 28.967 194.667 34.785 198.184 41.802 198.633 C 41.8 198.633 43.265 198.687 43.265 198.687 L 44.806 198.627 C 44.805 198.627 45.2 198.595 45.2 198.595 L 45.369 198.578 C 51.953 197.952 57.32 194.672 59.049 190.222 C 59.395 189.45 59.444 188.98 59.444 188.777 C 59.444 188.773 59.468 184.162 59.468 184.162 L 59.856 149.005 C 59.855 149.028 59.842 149.046 59.839 149.068 Z M 57.903 183.771 L 57.88 188.125 C 57.88 188.135 57.86 188.388 57.626 188.909 C 57.621 188.921 57.616 188.933 57.609 188.946 C 56.124 192.788 51.145 195.75 45.219 196.314 C 45.218 196.314 45.061 196.328 45.061 196.328 L 44.695 196.359 C 44.693 196.359 43.263 196.416 43.263 196.416 L 41.903 196.365 C 35.595 195.961 30.203 192.802 28.79 188.684 C 28.785 188.668 28.678 188.395 28.678 188.395 C 28.678 188.395 28.585 188.147 28.568 188.105 C 28.568 187.925 28.547 184.32 28.547 184.32 L 28.936 148.738 C 29.013 142.373 35.375 138.721 43.412 138.721 C 51.473 138.721 58.266 142.42 58.266 148.848 L 58.288 149.464 L 58.294 149.529 L 57.903 183.771 Z M 59.443 188.726 C 59.443 188.737 59.443 188.767 59.443 188.767 C 59.443 188.752 59.443 188.737 59.443 188.726 Z M 59.057 190.206 C 59.055 190.211 59.051 190.217 59.049 190.222 C 59.046 190.23 59.044 190.235 59.041 190.243 C 59.046 190.232 59.051 190.22 59.057 190.206 Z" style=""/>
  <path fill="url(#e)" d="M 43.858 137.55 C 35.567 137.55 28.84 142.952 28.771 149.634 L 28.759 149.634 L 28.384 184.846 L 28.406 188.613 C 28.424 188.781 28.575 189.094 28.668 189.35 C 30.174 193.734 35.664 196.933 42.112 197.347 C 42.566 197.38 43.025 197.398 43.489 197.398 C 43.977 197.398 44.462 197.376 44.938 197.341 C 45.083 197.331 45.227 197.318 45.37 197.304 C 45.403 197.301 45.435 197.299 45.468 197.296 C 51.475 196.725 56.595 193.726 58.178 189.637 C 58.514 188.892 58.498 188.541 58.498 188.541 L 58.519 184.301 L 58.896 150.403 C 58.902 150.415 58.871 150.079 58.871 149.745 C 58.87 143.014 52.193 137.55 43.858 137.55 Z" style=""/>
  <path fill="url(#f)" d="M 46.665 142.349 C 40.029 142.349 34.644 147.218 34.589 153.245 L 34.58 153.245 L 34.2 185.614 L 34.218 188.673 C 34.232 188.825 34.352 189.107 34.428 189.339 C 35.633 193.291 40.028 196.175 45.191 196.547 C 45.553 196.578 45.921 196.593 46.291 196.593 C 46.683 196.593 47.069 196.575 47.453 196.543 C 47.569 196.532 47.683 196.521 47.799 196.51 C 47.824 196.507 47.85 196.504 47.876 196.501 C 52.686 195.986 56.783 193.281 58.05 189.596 C 58.319 188.923 58.307 188.607 58.307 188.607 L 58.322 185.121 L 58.703 153.935 C 58.708 153.946 58.683 153.642 58.683 153.343 C 58.682 147.274 53.338 142.349 46.665 142.349 Z" opacity=".6" style=""/>
  <path fill="url(#g)" d="M 58.038 147.848 C 58.097 153.203 51.741 157.63 43.841 157.739 C 35.943 157.848 29.494 153.594 29.436 148.239 C 29.378 142.886 35.733 138.457 43.633 138.351 C 51.531 138.242 57.98 142.496 58.038 147.848 Z" style=""/>
  <path fill="url(#h)" d="M 55.194 147.232 C 55.241 151.522 50.149 155.069 43.821 155.155 C 37.494 155.241 32.326 151.834 32.28 147.545 C 32.235 143.255 37.327 139.708 43.654 139.622 C 49.98 139.537 55.148 142.943 55.194 147.232 Z" style=""/>
  <path fill="#fff" d="M 45.538 156.596 C 37.525 157.097 30.818 153.243 30.558 147.989 C 30.509 146.987 30.7 146.006 31.092 145.073 C 30.171 146.417 29.684 147.902 29.761 149.434 C 30.022 154.69 36.729 158.542 44.741 158.042 C 51.226 157.638 56.235 153.75 57.903 149.784 C 55.67 153.044 51.211 156.242 45.538 156.596 Z" style=""/>
  <path fill="url(#i)" d="M 49.115 146.813 C 49.115 149.143 46.582 151.031 43.457 151.031 C 40.332 151.031 37.798 149.143 37.798 146.813 C 37.798 144.483 40.332 142.594 43.457 142.594 C 46.582 142.594 49.115 144.483 49.115 146.813 Z" style=""/>
  <path fill="url(#j)" d="M 49.115 145.789 C 49.115 147.555 46.582 148.984 43.457 148.984 C 40.332 148.984 37.798 147.554 37.798 145.789 C 37.798 144.025 40.332 142.594 43.457 142.594 C 46.582 142.594 49.115 144.025 49.115 145.789 Z" style=""/>
  <path fill="none" d="M 58.564 173.185 C 58.681 177.025 58.672 184.188 58.672 184.188 L 58.675 183.907 L 58.687 173.008 C 58.645 173.067 58.605 173.127 58.564 173.185 Z" style=""/>
  <path fill="url(#x)" d="M 28.406 188.612 C 28.424 188.781 28.575 189.094 28.668 189.35 C 30.174 193.734 35.664 196.933 42.112 197.347 C 42.566 197.38 43.025 197.397 43.489 197.397 C 43.977 197.397 44.462 197.376 44.938 197.341 C 45.083 197.331 45.227 197.318 45.37 197.304 C 45.403 197.301 45.435 197.299 45.468 197.296 C 51.475 196.724 56.595 193.725 58.178 189.636 C 58.514 188.891 58.498 188.54 58.498 188.54 L 58.519 184.301 L 58.638 173.649 C 54.951 178.36 49.604 181.329 43.649 181.329 C 37.607 181.329 32.197 178.272 28.507 173.441 L 28.384 184.846 L 28.406 188.612 Z" style=""/>
  <path fill="#fff" d="M 47.851 159.845 L 42.866 171.758 L 47.851 175.656 L 37.344 188.436 L 39.482 176.739 L 35.563 173.491 L 47.851 159.845 Z" opacity=".87" style=""/>
</svg>